<?xml version="1.0" encoding="UTF-8" standalone="no"?>
<svg
   version="1.1"
   id="Layer_1"
   x="0px"
   y="0px"
   width="100%"
   viewBox="0 0 1024 1024"
   enable-background="new 0 0 1024 1024"
   xml:space="preserve"
   sodipodi:docname="logo-generated.svg"
   inkscape:version="1.3 (0e150ed, 2023-07-21)"
   xmlns:inkscape="http://www.inkscape.org/namespaces/inkscape"
   xmlns:sodipodi="http://sodipodi.sourceforge.net/DTD/sodipodi-0.dtd"
   xmlns:xlink="http://www.w3.org/1999/xlink"
   xmlns="http://www.w3.org/2000/svg"
   xmlns:svg="http://www.w3.org/2000/svg"><defs
   id="defs189"><linearGradient
     id="linearGradient246"
     inkscape:collect="always"><stop
       style="stop-color:#d212ba;stop-opacity:1;"
       offset="0"
       id="stop246" /><stop
       style="stop-color:#d25e12;stop-opacity:0.9562363;"
       offset="1"
       id="stop247" /></linearGradient><filter
     inkscape:collect="always"
     style="color-interpolation-filters:sRGB"
     id="filter246"
     x="-0.049324036"
     y="-0.04745172"
     width="1.1039051"
     height="1.0948821"><feGaussianBlur
       inkscape:collect="always"
       stdDeviation="4.722104"
       id="feGaussianBlur246" /></filter><linearGradient
     inkscape:collect="always"
     xlink:href="#linearGradient246"
     id="linearGradient247"
     x1="318.54026"
     y1="423.45034"
     x2="711.59923"
     y2="423.45034"
     gradientUnits="userSpaceOnUse" /><linearGradient
     inkscape:collect="always"
     xlink:href="#linearGradient246"
     id="linearGradient262"
     gradientUnits="userSpaceOnUse"
     x1="318.54026"
     y1="423.45034"
     x2="711.59923"
     y2="423.45034" /><linearGradient
     inkscape:collect="always"
     xlink:href="#linearGradient246"
     id="linearGradient263"
     gradientUnits="userSpaceOnUse"
     x1="318.54026"
     y1="423.45034"
     x2="711.59923"
     y2="423.45034" /><linearGradient
     inkscape:collect="always"
     xlink:href="#linearGradient246"
     id="linearGradient264"
     gradientUnits="userSpaceOnUse"
     x1="318.54026"
     y1="423.45034"
     x2="711.59923"
     y2="423.45034" /><linearGradient
     inkscape:collect="always"
     xlink:href="#linearGradient246"
     id="linearGradient265"
     gradientUnits="userSpaceOnUse"
     x1="318.54026"
     y1="423.45034"
     x2="711.59923"
     y2="423.45034" /><linearGradient
     inkscape:collect="always"
     xlink:href="#linearGradient246"
     id="linearGradient266"
     gradientUnits="userSpaceOnUse"
     x1="318.54026"
     y1="423.45034"
     x2="711.59923"
     y2="423.45034" /><linearGradient
     inkscape:collect="always"
     xlink:href="#linearGradient246"
     id="linearGradient267"
     gradientUnits="userSpaceOnUse"
     x1="318.54026"
     y1="423.45034"
     x2="711.59923"
     y2="423.45034" /><linearGradient
     inkscape:collect="always"
     xlink:href="#linearGradient246"
     id="linearGradient268"
     gradientUnits="userSpaceOnUse"
     x1="318.54026"
     y1="423.45034"
     x2="711.59923"
     y2="423.45034" /><linearGradient
     inkscape:collect="always"
     xlink:href="#linearGradient246"
     id="linearGradient269"
     gradientUnits="userSpaceOnUse"
     x1="318.54026"
     y1="423.45034"
     x2="711.59923"
     y2="423.45034" /><linearGradient
     inkscape:collect="always"
     xlink:href="#linearGradient246"
     id="linearGradient270"
     gradientUnits="userSpaceOnUse"
     x1="318.54026"
     y1="423.45034"
     x2="711.59923"
     y2="423.45034" /><linearGradient
     inkscape:collect="always"
     xlink:href="#linearGradient246"
     id="linearGradient271"
     gradientUnits="userSpaceOnUse"
     x1="318.54026"
     y1="423.45034"
     x2="711.59923"
     y2="423.45034" /><linearGradient
     inkscape:collect="always"
     xlink:href="#linearGradient246"
     id="linearGradient272"
     gradientUnits="userSpaceOnUse"
     x1="318.54026"
     y1="423.45034"
     x2="711.59923"
     y2="423.45034" /><linearGradient
     inkscape:collect="always"
     xlink:href="#linearGradient246"
     id="linearGradient273"
     gradientUnits="userSpaceOnUse"
     x1="318.54026"
     y1="423.45034"
     x2="711.59923"
     y2="423.45034" /><linearGradient
     inkscape:collect="always"
     xlink:href="#linearGradient246"
     id="linearGradient274"
     gradientUnits="userSpaceOnUse"
     x1="318.54026"
     y1="423.45034"
     x2="711.59923"
     y2="423.45034" /><linearGradient
     inkscape:collect="always"
     xlink:href="#linearGradient246"
     id="linearGradient275"
     gradientUnits="userSpaceOnUse"
     x1="318.54026"
     y1="423.45034"
     x2="711.59923"
     y2="423.45034" /><linearGradient
     inkscape:collect="always"
     xlink:href="#linearGradient246"
     id="linearGradient276"
     gradientUnits="userSpaceOnUse"
     x1="318.54026"
     y1="423.45034"
     x2="711.59923"
     y2="423.45034" /></defs><sodipodi:namedview
   id="namedview189"
   pagecolor="#ffffff"
   bordercolor="#000000"
   borderopacity="0.25"
   inkscape:showpageshadow="2"
   inkscape:pageopacity="0.0"
   inkscape:pagecheckerboard="0"
   inkscape:deskcolor="#d1d1d1"
   inkscape:zoom="0.50706652"
   inkscape:cx="565.01463"
   inkscape:cy="442.7427"
   inkscape:window-width="1536"
   inkscape:window-height="834"
   inkscape:window-x="0"
   inkscape:window-y="25"
   inkscape:window-maximized="1"
   inkscape:current-layer="layer1" />&#10;&#10;&#10;&#10;&#10;&#10;&#10;&#10;&#10;&#10;<g
   id="g189"
   style="fill:#000000"
   transform="translate(27.269573)"><path
     fill="#F4F4F4"
     opacity="1"
     stroke="none"
     d="m 513.09558,708.04767 c -5.31476,-8.78552 -10.44082,-17.263 -15.56692,-25.74042 -0.42188,0.0877 -0.84379,0.17523 -1.26566,0.26288 0,16.45911 0,32.91827 0,49.77637 -4.36035,0 -7.92026,0 -11.86508,0 0,-24.87287 0,-49.76538 0,-74.63404 8.11816,-2.09936 9.56128,-1.59552 13.74188,5.3783 8.72525,14.55469 17.37302,29.15588 26.48575,44.46576 1.22552,-1.93823 2.16608,-3.38745 3.06903,-4.85974 8.0943,-13.19733 16.47516,-26.23169 24.12946,-39.67963 3.12982,-5.49884 6.87872,-7.00842 12.91009,-5.38696 0,24.79156 0,49.68255 0,74.88861 -3.51489,0 -7.06909,0 -11.36255,0 0,-17.16266 0,-34.16357 0,-51.16455 -0.40893,-0.0971 -0.81781,-0.19416 -1.22674,-0.29126 -3.47058,5.75683 -6.89399,11.54291 -10.42444,17.26282 -3.93457,6.37469 -7.81177,12.79357 -12.00061,18.99975 -3.97284,5.88611 -6.95038,5.75842 -10.82843,-0.11011 -1.92652,-2.91522 -3.74158,-5.90411 -5.79578,-9.16778 z"
     id="path3"
     style="fill:#000000" /><path
     fill="#F4F4F4"
     opacity="1"
     stroke="none"
     d="m 651.35388,722.92981 c 1.2e-4,3.46057 1.2e-4,6.43396 1.2e-4,9.66876 -4.01202,0 -7.60632,0 -11.64135,0 0,-24.96997 0,-49.85937 0,-74.93518 4.94665,-1.22442 8.68194,-0.36847 12.13977,3.96423 11.11694,13.92945 22.64789,27.52863 34.03729,41.24018 1.211,1.45788 2.5415,2.81659 4.77747,5.28003 0,-17.82294 0,-34.18915 0,-50.85462 4.24456,0 7.96087,0 11.98565,0 0,25.1529 0,50.06836 0,75.12866 -4.69244,1.40607 -7.98291,0.54719 -11.20044,-3.57641 -11.68152,-14.97083 -23.79834,-29.60205 -35.75982,-44.35413 -1.02131,-1.25952 -2.10834,-2.46576 -4.33875,-3.5191 0,13.82348 0,27.64697 6e-5,41.95758 z"
     id="path4"
     style="fill:#000000" /><path
     fill="#F4F4F4"
     opacity="1"
     stroke="none"
     d="m 317.02026,669.03027 c -3e-5,-4.14355 -3e-5,-7.79339 -3e-5,-11.75519 1.60791,-0.2127 2.86402,-0.52184 4.12015,-0.52209 8.83102,-0.001 17.70099,-0.42712 26.47934,0.27411 5.85446,0.46765 11.94073,1.75244 17.28088,4.12024 9.4188,4.17621 14.50031,11.92218 14.64463,22.51593 0.14166,10.39545 -3.89063,18.39142 -13.32108,23.31842 -0.57022,0.29797 -1.06888,0.73285 -1.9649,1.35809 5.42431,8.02893 10.76522,15.93433 16.55325,24.50165 -4.42026,0 -8.04169,0.2561 -11.59262,-0.1322 -1.32987,-0.14545 -2.78326,-1.57648 -3.68677,-2.78912 -3.97858,-5.34009 -7.71545,-10.86005 -11.68637,-16.206 -0.92825,-1.24969 -2.39276,-2.90076 -3.67184,-2.95636 -6.77066,-0.29437 -13.56086,-0.13824 -20.83786,-0.13824 0,8.00866 0,15.26831 0,22.78491 -4.09766,0 -7.68512,0 -12.31675,0 0,-21.38568 0,-42.63306 -3e-5,-64.37415 m 48.27124,23.42255 c 4.60483,-10.8678 1.02799,-21.30139 -9.39737,-23.68146 -8.53735,-1.94909 -17.57827,-1.69256 -26.42196,-2.41595 0,12.05291 0,22.75873 0,33.49426 8.18329,0 15.99002,0.19 23.7818,-0.0693 4.88278,-0.16259 8.9169,-2.43951 12.03753,-7.32751 z"
     id="path5"
     style="fill:#000000" /><path
     fill="#F4F4F4"
     opacity="1"
     stroke="none"
     d="m 417.91168,681.9187 c 0.0289,2.48694 0.0442,4.48535 0.10083,6.48255 0.009,0.30523 0.20902,0.60498 0.52137,1.45019 11.69781,0 23.60504,0 35.80688,0 0,3.46906 0,6.39514 0,9.88843 -11.98428,0 -23.87818,0 -36.12592,0 0,7.77423 0,14.99255 0,22.76117 14.15039,0 28.21354,0 42.51462,0 0,3.62506 0,6.70373 0,10.10357 -18.46579,0 -36.68905,0 -55.23654,0 0,-25.11663 0,-50.03076 0,-75.30664 17.62631,0 35.18317,0 53.12122,0 0,3.14014 0,6.19934 0,9.805 -13.44809,0 -26.73093,0 -40.70264,0 0,5.1214 0,9.72412 1.8e-4,14.81573 z"
     id="path6"
     style="fill:#000000" /><path
     fill="#F4F4F4"
     opacity="1"
     stroke="none"
     d="m 280.71429,718.9801 c 2.32718,-1.65649 4.3273,-3.13336 6.8136,-4.96917 2.27802,2.41064 4.61338,4.88183 6.88404,7.28466 -5.03528,8.78601 -24.02915,16.60834 -41.37491,11.96961 -17.28762,-4.62323 -28.3497,-17.71094 -29.70763,-35.80988 -1.21719,-16.22314 8.00351,-31.05188 23.44188,-37.69916 16.18576,-6.96911 37.0914,-3.20733 47.85474,8.85798 -0.98093,1.18603 -1.99359,2.42962 -3.02765,3.65527 -0.95514,1.13196 -1.93323,2.24451 -3.03137,3.51642 -3.88498,-2.09772 -7.51716,-4.41864 -11.42283,-6.10645 -18.29153,-7.90442 -38.5162,1.93585 -41.22656,19.97992 -1.6784,11.17395 1.00513,21.03815 10.19609,28.09125 9.40677,7.21875 19.89699,7.68115 30.70531,3.1991 1.22601,-0.50843 2.38055,-1.18915 3.89529,-1.96955 z"
     id="path7"
     style="fill:#000000" /><path
     fill="#F4F4F4"
     opacity="1"
     stroke="none"
     d="m 734.22388,685.99988 c 2.4e-4,-9.81482 2.4e-4,-19.1297 2.4e-4,-28.76514 4.14142,0 7.888,0 12.01465,0 0,25.10486 0,50.16034 0,75.56177 -3.62097,0 -7.35376,0 -12.01508,0 0,-15.50623 0,-30.90137 1.9e-4,-46.79663 z"
     id="path8"
     style="fill:#000000" /><path
     fill="#F4F4F4"
     opacity="1"
     stroke="none"
     d="m 596.09228,722.9519 c -9.1e-4,-22.09515 -9.1e-4,-43.69866 -9.1e-4,-65.68493 4.02765,0 7.74738,0 11.79413,0 0,25.03521 0,50.0664 0,75.38019 -3.77722,0 -7.37665,0 -11.79236,0 0,-3.03168 0,-6.11774 -8.6e-4,-9.69526 z"
     id="path10"
     style="fill:#000000" /></g>&#10;&#10;&#10;&#10;&#10;&#10;&#10;&#10;&#10;&#10;&#10;&#10;&#10;&#10;&#10;&#10;&#10;&#10;&#10;&#10;&#10;&#10;&#10;&#10;&#10;&#10;&#10;&#10;&#10;&#10;&#10;&#10;&#10;&#10;&#10;&#10;&#10;&#10;&#10;&#10;&#10;&#10;&#10;&#10;&#10;&#10;&#10;&#10;&#10;&#10;&#10;&#10;&#10;&#10;&#10;&#10;&#10;&#10;&#10;&#10;&#10;&#10;&#10;&#10;&#10;&#10;&#10;&#10;&#10;&#10;&#10;&#10;&#10;&#10;&#10;&#10;&#10;&#10;&#10;&#10;&#10;&#10;&#10;&#10;&#10;&#10;&#10;&#10;&#10;&#10;&#10;&#10;&#10;&#10;&#10;&#10;&#10;&#10;&#10;&#10;&#10;&#10;&#10;&#10;&#10;&#10;&#10;&#10;&#10;&#10;&#10;&#10;&#10;&#10;&#10;&#10;&#10;&#10;&#10;&#10;&#10;&#10;&#10;&#10;&#10;&#10;&#10;&#10;&#10;&#10;&#10;&#10;&#10;&#10;&#10;&#10;&#10;&#10;&#10;&#10;&#10;&#10;&#10;&#10;&#10;&#10;&#10;&#10;&#10;&#10;&#10;&#10;&#10;&#10;&#10;&#10;&#10;&#10;&#10;&#10;&#10;&#10;&#10;&#10;&#10;&#10;&#10;&#10;&#10;&#10;&#10;&#10;&#10;&#10;&#10;&#10;&#10;&#10;&#10;&#10;<g
   inkscape:groupmode="layer"
   id="g246"
   inkscape:label="main copy"
   style="stroke:url(#linearGradient247);stroke-opacity:1;stroke-width:11.1;stroke-dasharray:none;filter:url(#filter246);opacity:0.95575221"><g
     id="g245"
     style="display:none;opacity:0.87;stroke:url(#linearGradient247);stroke-opacity:1;stroke-width:11.1;stroke-dasharray:none"><path
       fill="#c7645a"
       opacity="1"
       stroke="none"
       d="m 432.89935,503.89862 c 0.0657,-1.33047 0.13135,-2.66095 0.54163,-4.51462 1.37244,-3.50931 2.40027,-6.49545 3.42813,-9.4816 -2.18393,-0.71865 -4.37302,-1.42221 -6.54767,-2.16796 -0.46133,-0.15824 -0.86984,-0.47037 -0.9762,-0.95087 1.9545,-0.40772 3.58192,-0.58218 5.21064,-0.74341 4.27695,-0.42346 6.3565,0.81058 4.78933,5.61099 -0.94958,2.90876 0.69303,4.71003 3.53516,5.7453 -1.72754,7.09232 -3.40472,13.81482 -5.27426,20.90323 0.63666,9.58124 -0.0293,19.24048 2.55258,27.93537 11.36588,38.27728 49.50656,61.19201 88.74805,53.708 29.57361,-5.64026 49.03894,-23.12518 58.2998,-52.2951 4.60065,-15.13635 3.50086,-29.89588 0.13977,-44.88709 1.74323,-1.76098 3.24793,-3.27508 4.75269,-4.78918 0.32953,1.04626 0.65912,2.0925 0.96844,3.84204 0.61115,1.53507 1.24244,2.36691 1.87378,3.19873 4.66626,18.43445 3.71161,36.50513 -2.87378,54.41211 -4.87201,13.24817 -13.38275,23.77765 -23.95752,32.57538 -15.70587,13.06653 -34.32556,19.21063 -54.5473,18.68677 -20.90018,-0.54139 -40.47745,-6.27619 -56.36877,-20.79645 -14.94751,-13.65796 -24.36664,-30.3714 -27.25235,-50.71271 -1.54602,-10.8977 -0.47122,-21.53491 1.47555,-32.75534 0.70008,-1.19031 1.09119,-1.85693 1.4823,-2.52359 z"
       id="path204"
       style="stroke:url(#linearGradient247);stroke-opacity:1;stroke-width:11.1;stroke-dasharray:none" /><path
       fill="#bc5c76"
       opacity="1"
       stroke="none"
       d="m 592.06494,497.5835 c -1.4707,1.90228 -2.9754,3.41638 -4.96417,4.91632 -3.65515,-7.2024 -6.82617,-14.39063 -10.28021,-22.22037 2.4757,-0.11676 4.24572,-0.26596 6.01629,-0.2731 11.12952,-0.0449 22.25965,-0.009 33.38849,-0.11487 2.94837,-0.0281 5.89282,-0.4595 9.1626,-0.69928 0.75427,-0.0246 1.18506,-0.0556 2.06641,-0.0529 3.83325,-0.32187 7.21594,-0.6774 10.98486,-1.05163 18.77075,-4.48871 32.0592,-15.37915 41.08978,-32.13819 4.98273,-2.07586 9.05695,-4.54547 9.56299,-10.33035 0.0507,-0.57986 1.08435,-1.07373 1.66186,-1.60748 -1.27575,11.32202 -7.05603,20.53531 -13.66644,29.38891 -9.54498,12.78409 -22.69336,20.24884 -37.94403,22.71811 -11.67328,1.89002 -23.7821,1.09906 -35.69842,1.46042 -0.80976,0.0245 -1.6233,-0.35336 -2.44593,-0.43402 -9.35797,-0.91739 -11.19281,1.14572 -8.93408,10.43845 z"
       id="path205"
       style="stroke:url(#linearGradient247);stroke-opacity:1;stroke-width:11.1;stroke-dasharray:none" /><path
       fill="#bb5b8c"
       opacity="1"
       stroke="none"
       d="m 690.82629,433.63293 c -0.64996,0.91245 -1.68359,1.40632 -1.73431,1.98618 -0.50604,5.78488 -4.58026,8.25449 -9.54291,9.96286 1.27716,-6.71954 2.87152,-13.15103 4.53711,-19.98926 -0.26471,-6.81177 0.26788,-13.40869 -1.09692,-19.58639 -4.38782,-19.8609 -16.00244,-35.0322 -31.95636,-46.89298 2.2572,-0.77615 4.13708,-1.45737 6.25653,-2.12137 0.23956,0.0172 0.71625,0.0768 0.80554,0.38944 1.00745,0.75354 1.9256,1.19443 3.18109,1.64972 0.78693,0.0215 1.23663,0.0286 1.68628,0.0358 0.81879,0.55112 1.63764,1.10224 2.73712,2.16065 0.9643,1.24695 1.64789,1.98663 2.33148,2.72632 0.64856,0.78683 1.29712,1.57367 1.98261,3.0484 1.00537,1.47186 1.97382,2.25583 2.9422,3.03979 3.03503,4.66638 6.07013,9.3328 9.15509,14.67725 0.62927,1.21231 1.20856,1.74658 1.78784,2.28088 2.10071,7.28925 4.20142,14.57853 6.24561,22.71363 0.5122,2.65148 1.08099,4.45715 1.64978,6.26281 0.0159,3.70591 0.0319,7.41178 -0.27222,11.66156 -0.40747,1.46735 -0.49506,2.39078 -0.58264,3.31424 -0.0135,0.76728 -0.027,1.53458 -0.11292,2.68051 z"
       id="path206"
       style="stroke:url(#linearGradient247);stroke-opacity:1;stroke-width:11.1;stroke-dasharray:none" /><path
       fill="#bc5c76"
       opacity="1"
       stroke="none"
       d="m 691.85425,415.5817 c -0.62897,-1.41074 -1.19776,-3.21641 -1.71314,-5.44883 0.62671,1.40015 1.20008,3.22702 1.71314,5.44883 z"
       id="path207"
       style="stroke:url(#linearGradient247);stroke-opacity:1;stroke-width:11.1;stroke-dasharray:none" /><path
       fill="#bc5c76"
       opacity="1"
       stroke="none"
       d="m 594.94312,504.66861 c -0.63324,-0.48798 -1.26453,-1.31982 -1.88636,-2.51309 0.63574,0.48211 1.26197,1.32568 1.88636,2.51309 z"
       id="path208"
       style="stroke:url(#linearGradient247);stroke-opacity:1;stroke-width:11.1;stroke-dasharray:none" /><path
       fill="#a9549f"
       opacity="1"
       stroke="none"
       d="m 673.00671,369.77063 c -1.01934,-0.51254 -1.98779,-1.29651 -2.97094,-2.43848 0.841,0.21909 1.69665,0.79624 2.84118,1.49939 0.25281,0.30655 0.2168,0.48709 0.12976,0.93909 z"
       id="path209"
       style="stroke:url(#linearGradient247);stroke-opacity:1;stroke-width:11.1;stroke-dasharray:none" /><path
       fill="#bc5c76"
       opacity="1"
       stroke="none"
       d="m 691.16773,430.72507 c -0.14094,-0.69611 -0.0534,-1.61954 0.29785,-2.62815 0.15258,0.7435 0.0416,1.57215 -0.29785,2.62815 z"
       id="path210"
       style="stroke:url(#linearGradient247);stroke-opacity:1;stroke-width:11.1;stroke-dasharray:none" /><path
       fill="#9b4f6d"
       opacity="1"
       stroke="none"
       d="m 432.60809,504.0022 c -0.0999,0.56308 -0.49096,1.2297 -1.16934,2.00104 0.1012,-0.56266 0.48963,-1.23005 1.16934,-2.00104 z"
       id="path211"
       style="stroke:url(#linearGradient247);stroke-opacity:1;stroke-width:11.1;stroke-dasharray:none" /><path
       fill="#a9549f"
       opacity="1"
       stroke="none"
       d="m 683.85644,386.69369 c -0.53704,-0.22781 -1.11633,-0.76208 -1.73059,-1.62069 0.53949,0.22186 1.1139,0.76803 1.73059,1.62069 z"
       id="path212"
       style="stroke:url(#linearGradient247);stroke-opacity:1;stroke-width:11.1;stroke-dasharray:none" /><path
       fill="#b15aba"
       opacity="1"
       stroke="none"
       d="m 613.57196,297.89661 c 0.37525,0.48989 0.4505,0.86865 0.55328,1.90789 2.85535,4.79184 5.54468,9.02817 8.56641,13.01246 1.6358,2.15676 0.81061,2.81997 -1.50055,3.2423 -8.50268,-7.78466 -16.7204,-15.46658 -25.15179,-23.39209 -0.80793,-0.41244 -1.4021,-0.58123 -2.02137,-0.72247 -0.025,0.0276 0.0449,0.002 0.002,-0.26788 -0.35175,-0.42801 -0.66059,-0.58603 -0.91309,-0.75128 0.0564,-0.007 0.0872,-0.11664 0.0659,-0.46283 -7.02356,-7.4447 -13.72974,-14.8671 -21.08039,-21.58423 -28.3869,-25.94026 -68.78509,-31.09216 -101.10021,-11.13721 -9.00614,5.5614 -16.27652,13.93363 -24.62601,21.16763 -5.0965,5.35926 -9.83344,10.64084 -14.74231,15.75748 -6.94708,7.24109 -14.02103,14.36047 -21.42996,21.48413 -5.92334,-2.5213 -1.41428,-4.91299 -0.1214,-6.95486 2.05053,-3.23841 4.58593,-6.16983 6.91626,-9.23111 0.32257,-0.45679 0.64517,-0.91358 1.38107,-1.70941 1.1091,-0.76911 1.92828,-1.0788 2.48251,-1.64698 11.97648,-12.27728 23.93341,-24.5737 35.84809,-36.91085 0.64337,-0.66623 0.88391,-1.72147 1.31195,-2.59565 0,0 0.47452,-0.0912 1.06006,-0.16122 3.01489,-2.03336 5.44424,-3.99669 7.87359,-5.96002 0,0 0.0161,-0.0239 0.40198,-0.0274 1.3121,-0.32495 2.30002,-0.53038 3.15543,-0.98514 14.26602,-7.5843 29.51849,-11.43238 45.613,-12.12509 0.41907,-0.007 0.83808,-0.0131 1.87476,0.26337 3.37036,0.63626 6.21716,0.65684 8.85913,1.40268 9.44611,2.66661 18.82288,5.57921 28.22583,8.39877 0.41888,0.0791 0.83783,0.1583 1.67938,0.58896 1.31659,0.74815 2.21051,1.14475 3.10443,1.54135 15.8346,9.74689 28.08484,23.61417 41.49353,36.14652 0.94934,0.88727 1.57618,2.11953 2.55628,3.83099 1.51251,1.74625 2.82184,2.85284 4.13116,3.95947 1.74372,1.27021 3.48743,2.54041 5.53113,3.92176 z"
       id="path213"
       style="stroke:url(#linearGradient247);stroke-opacity:1;stroke-width:11.1;stroke-dasharray:none" /><path
       fill="#a9549f"
       opacity="1"
       stroke="none"
       d="m 416.65015,300.02502 c -1.99183,3.0008 -4.52723,5.93222 -6.57776,9.17063 -1.29288,2.04187 -5.80194,4.43356 -0.0638,7.27167 -0.36292,1.35925 -0.76215,2.51022 -1.52176,3.32534 -11.53525,12.37873 -23.21408,24.62513 -34.64398,37.09983 -4.91138,5.36023 -9.32895,11.17291 -14.25095,16.98751 -4.68558,7.18247 -9.09107,14.15744 -13.74845,20.91962 -1.13714,-1.77618 -2.0224,-3.33957 -2.90765,-4.90298 2.44876,-5.2081 4.86008,-10.43433 7.36896,-15.61332 0.7612,-1.57125 1.79217,-3.01187 2.72751,-4.86941 1.29895,-1.49655 2.57001,-2.63602 3.8891,-4.11438 0.95257,-1.4606 1.85714,-2.58234 3.22986,-4.06247 0.92822,-0.99048 1.3883,-1.62256 1.84838,-2.25464 10.82251,-11.97418 21.65226,-23.94183 32.46463,-35.9252 5.77216,-6.39731 11.47431,-12.85849 17.30054,-19.2059 1.31839,-1.43631 3.02106,-2.5199 4.88535,-3.8263 z"
       id="path214"
       style="stroke:url(#linearGradient247);stroke-opacity:1;stroke-width:11.1;stroke-dasharray:none" /><path
       fill="#a9549f"
       opacity="1"
       stroke="none"
       d="m 457.66867,257.13092 c -0.0844,0.84491 -0.32498,1.90015 -0.96835,2.56638 -11.91468,12.33715 -23.87161,24.63357 -35.84809,36.91085 -0.55423,0.56818 -1.37341,0.87787 -2.39428,1.37818 2.64447,-3.608 5.37426,-7.51538 8.62921,-10.92081 9.2507,-9.67847 18.70752,-19.16012 28.11734,-28.68555 0.5524,-0.55917 1.40671,-0.8201 2.46417,-1.24905 z"
       id="path215"
       style="stroke:url(#linearGradient247);stroke-opacity:1;stroke-width:11.1;stroke-dasharray:none" /><path
       fill="#a9549f"
       opacity="1"
       stroke="none"
       d="m 515.94275,237.52147 c -15.92093,1.01398 -31.1734,4.86206 -45.43942,12.44636 -0.85541,0.45476 -1.84333,0.66019 -3.14365,0.97676 3.59961,-2.45916 7.38907,-5.30177 11.58313,-7.29153 10.61706,-5.03696 22.1286,-6.47662 33.68744,-7.44806 1.01129,-0.085 2.091,0.64418 3.3125,1.31647 z"
       id="path216"
       style="stroke:url(#linearGradient247);stroke-opacity:1;stroke-width:11.1;stroke-dasharray:none" /><path
       fill="#7c4479"
       opacity="1"
       stroke="none"
       d="m 668.01416,363.61176 c -0.66681,-0.39759 -1.3504,-1.13727 -2.09753,-2.18299 0.65124,0.40964 1.36602,1.12525 2.09753,2.18299 z"
       id="path217"
       style="stroke:url(#linearGradient247);stroke-opacity:1;stroke-width:11.1;stroke-dasharray:none" /><path
       fill="#a9549f"
       opacity="1"
       stroke="none"
       d="m 615.68457,299.92932 c 3.09387,2.95566 5.88062,5.87317 8.94543,8.96594 2.45087,3.05292 4.73536,5.85386 6.77478,8.82309 5.46186,7.95218 5.24689,16.89057 -0.42169,22.77497 -6.24151,6.47912 -16.8236,8.26553 -23.99304,2.18509 -10.55926,-8.95536 -20.01953,-19.20661 -29.62903,-29.27558 1.81476,-1.50461 3.31067,-2.63949 5.09137,-3.58618 2.495,2.20807 4.74366,4.18768 6.90821,6.25525 6.98236,6.66943 13.81518,13.50088 20.93823,20.01562 4.87921,4.46262 9.98791,4.15577 14.67432,-0.30548 4.64959,-4.42627 4.93725,-8.78268 0.87243,-14.17801 -1.39923,-1.85717 -2.90985,-3.6304 -4.36957,-5.44198 2.02625,-0.52512 2.85144,-1.18833 1.21564,-3.34509 -3.02173,-3.98429 -5.71106,-8.22062 -8.53894,-12.72428 0.40814,-0.31537 0.81641,-0.25845 1.53186,-0.16336 z"
       id="path218"
       style="stroke:url(#linearGradient247);stroke-opacity:1;stroke-width:11.1;stroke-dasharray:none" /><path
       fill="#bc5c76"
       opacity="1"
       stroke="none"
       d="m 451.90955,480.33789 c -2.82215,5.40732 -5.64429,10.81458 -8.72263,16.45532 -3.14868,-0.43203 -4.79129,-2.2333 -3.84171,-5.14206 1.56717,-4.80041 -0.51238,-6.03445 -4.78933,-5.61099 -1.62872,0.16123 -3.25614,0.33569 -5.21064,0.74341 -3.703,0.24127 -7.07949,0.24325 -11.07845,0.0659 -1.16215,-0.0624 -1.70179,0.0545 -2.24143,0.17141 -9.42319,-0.32019 -19.03174,0.41785 -28.2287,-1.19357 -16.25348,-2.84775 -28.65085,-12.1994 -37.49322,-26.85892 2.84835,-3.88891 3.56451,1.65561 6.1553,1.13416 14.46475,14.7912 31.6879,21.0206 52.04507,20.12958 14.43937,-0.63205 28.93515,0.0244 43.40574,0.10571 z"
       id="path219"
       style="stroke:url(#linearGradient247);stroke-opacity:1;stroke-width:11.1;stroke-dasharray:none" /><path
       fill="#eba5b3"
       opacity="1"
       stroke="none"
       d="m 627.45435,479.13928 c 2.52594,-3.91681 6.38116,-1.78055 10.27819,-1.29303 -3.06225,0.61563 -6.44494,0.97116 -10.27819,1.29303 z"
       id="path220"
       style="stroke:url(#linearGradient247);stroke-opacity:1;stroke-width:11.1;stroke-dasharray:none" /><path
       fill="#a9549f"
       opacity="1"
       stroke="none"
       d="m 651.0329,359.11334 c -10.08991,-2.76077 -16.63068,1.36783 -15.71515,10.14981 0.24225,2.32389 2.35077,4.45319 3.68396,7.42151 1.02594,3.0813 1.87793,5.45618 2.94348,7.73105 0.87634,1.87106 2.00617,3.62341 3.02362,5.42838 -4.57294,-5.14197 -10.29401,-9.67582 -13.42297,-15.58271 -3.75782,-7.09402 -2.4007,-14.50042 4.2669,-19.43322 4.41193,-3.26407 17.33655,-4.30436 21.13184,1.81295 -1.7746,1.01486 -3.65448,1.69608 -5.91168,2.47223 z"
       id="path221"
       style="stroke:url(#linearGradient247);stroke-opacity:1;stroke-width:11.1;stroke-dasharray:none" /><path
       fill="#a9549f"
       opacity="1"
       stroke="none"
       d="m 658.09497,357.38141 c 0.79004,0.15375 1.66943,0.62012 2.69629,1.3609 -0.77069,-0.16647 -1.68884,-0.60736 -2.69629,-1.3609 z"
       id="path222"
       style="stroke:url(#linearGradient247);stroke-opacity:1;stroke-width:11.1;stroke-dasharray:none" /><path
       fill="#bb5b8c"
       opacity="1"
       stroke="none"
       d="m 355.64307,457.0784 c 0.12973,0.71423 0.25943,1.4285 0.46173,2.49853 -2.23685,1.04712 -2.95301,-4.4974 -6.01923,-0.8594 -2.89303,-4.41446 -6.29748,-8.89884 -8.39956,-13.92755 -7.1868,-17.19269 -7.71061,-34.69101 -1.01325,-52.22995 0.33579,-0.8794 1.06653,-1.60797 1.9382,-2.53507 1.21011,1.43509 2.09537,2.99848 3.16791,5.16101 -0.30155,2.3537 -0.91385,4.08432 -1.26022,5.86664 -3.92261,20.18369 -1.94764,39.21039 11.12442,56.02579 z"
       id="path223"
       style="stroke:url(#linearGradient247);stroke-opacity:1;stroke-width:11.1;stroke-dasharray:none" /><path
       fill="#c7645a"
       opacity="1"
       stroke="none"
       d="m 416.18997,487.18866 c 0.37503,-0.28464 0.91467,-0.40155 1.61667,-0.34473 -0.37576,0.28659 -0.91391,0.39954 -1.61667,0.34473 z"
       id="path224"
       style="stroke:url(#linearGradient247);stroke-opacity:1;stroke-width:11.1;stroke-dasharray:none" /><path
       fill="#b15aba"
       opacity="1"
       stroke="none"
       d="m 575.69116,301.96112 c 2.31061,2.45755 4.32764,4.74481 6.41052,7.3497 -1.42999,1.45252 -2.9259,2.5874 -4.80444,3.7569 -0.38269,0.0346 -0.3504,0.0128 -0.39148,-0.3392 -5.33026,-5.47617 -10.61938,-10.60032 -15.90851,-15.72446 0,0 0.003,-0.004 -0.0531,-0.34171 -1.7099,-1.76214 -3.36389,-3.18661 -5.01794,-4.61108 -3.4151,-2.64218 -6.83014,-5.28433 -10.66504,-8.35016 -1.73456,-1.15396 -3.04938,-1.88428 -4.36414,-2.61456 -0.41491,-0.042 -0.82983,-0.084 -1.64965,-0.48935 -1.74567,-1.05744 -3.08643,-1.7515 -4.42719,-2.44559 -1.00629,-0.0886 -2.01251,-0.17725 -3.49866,-0.61468 -2.08838,-0.75229 -3.6969,-1.15577 -5.30536,-1.55927 -0.74206,-0.0408 -1.48419,-0.0816 -2.66577,-0.40118 -1.07342,-0.37262 -1.70727,-0.46646 -2.34118,-0.56031 -3.37177,-0.0174 -6.74353,-0.0349 -10.87159,-0.29242 -12.87207,-0.768 -22.58639,5.141 -32.07263,11.5629 -0.66382,0.44937 -0.73041,1.78095 -1.07471,2.70227 0,0 0.01,0.0111 -0.35674,0.0151 -1.75202,1.36758 -3.13755,2.73117 -4.52308,4.09475 -3e-5,0 -0.10577,-0.0635 -0.42169,-0.038 -3.50378,2.93576 -7.08011,5.53107 -9.76846,8.84634 -2.60901,3.2175 -5.50238,4.32807 -9.35126,3.79279 4.16657,-5.24228 8.3331,-10.48456 12.60559,-16.03879 0.10596,-0.31192 0.0931,-0.43353 0.35837,-0.51218 1.34824,-1.09539 2.43124,-2.11215 3.51425,-3.1289 15.05829,-14.30335 32.86566,-20.82495 53.59775,-18.4848 15.03247,1.6968 27.05542,9.53921 37.80029,19.613 5.08789,4.77017 9.97449,9.75507 15.24585,14.81293 z"
       id="path225"
       style="stroke:url(#linearGradient247);stroke-opacity:1;stroke-width:11.1;stroke-dasharray:none" /><path
       fill="#a9549f"
       opacity="1"
       stroke="none"
       d="m 452.27801,305.83362 c 4.13993,0.40152 7.0333,-0.70905 9.64231,-3.92655 2.68835,-3.31527 6.26468,-5.91058 9.8154,-8.80569 -7.15213,8.53845 -14.67682,17.05319 -22.17932,25.58752 -7.18204,8.16983 -14.34095,16.36005 -21.57904,24.87659 -0.22687,0.61673 -0.42859,0.86212 -0.87092,1.20786 -0.63171,0.13824 -1.06664,0.14007 -2.065,-0.0268 -1.39642,0.95386 -2.22937,2.07642 -3.06231,3.19898 -1.46894,1.57617 -2.93784,3.15231 -5.0907,4.89038 -2.65042,1.26614 -4.75504,2.18536 -6.54691,3.52334 -2.04284,1.52545 -3.24911,5.12091 -6.68612,2.13733 0.67843,-1.1123 1.19155,-2.37799 2.05996,-3.31409 14.75769,-15.90756 29.55673,-31.77676 44.36188,-47.64019 0.5582,-0.59812 1.26965,-1.05317 2.20077,-1.70865 z"
       id="path226"
       style="stroke:url(#linearGradient247);stroke-opacity:1;stroke-width:11.1;stroke-dasharray:none" /><path
       fill="#bb5b8c"
       opacity="1"
       stroke="none"
       d="m 645.11682,390.17609 c -1.16546,-2.13697 -2.29529,-3.88932 -3.17163,-5.76038 -1.06555,-2.27487 -1.91754,-4.64975 -2.82336,-7.41852 13.52008,7.79074 21.91156,19.52152 23.81237,35.32431 0.62268,5.17713 -0.006,10.50476 -0.0851,16.19785 -4.35376,13.60287 -11.90594,23.93741 -25.67981,28.23807 -4.38006,1.36764 -9.12622,2.10369 -13.7171,2.16195 -20.49439,0.26026 -40.99317,0.17081 -62.35767,0.18845 -1.95044,0.0247 -3.03357,0.0686 -4.1167,0.11249 -4.35339,-0.0522 -8.70678,-0.10437 -13.44537,-0.56809 0.8363,-3.93286 3.80249,-3.64059 6.64642,-3.6405 23.42493,7.6e-4 46.8501,0.041 70.2743,-0.0903 1.86352,-0.0105 3.72039,-1.21808 5.90875,-1.87879 0.76678,-0.007 1.2052,-0.005 1.94299,0.22513 4.10388,0.88803 7.80847,1.27548 10.08209,-3.25094 15.66108,-7.57544 22.03077,-25.28412 17.53046,-40.98694 -0.72601,-2.53299 -2.55518,-4.74985 -3.87439,-7.11283 -2.25946,-3.80298 -4.51886,-7.60598 -6.92627,-11.74099 z"
       id="path227"
       style="stroke:url(#linearGradient247);stroke-opacity:1;stroke-width:11.1;stroke-dasharray:none" /><path
       fill="#c7645a"
       opacity="1"
       stroke="none"
       d="m 561.26636,496.90607 c 2.52539,6.16537 6.2019,12.13104 7.31415,18.54162 1.79779,10.36182 0.81982,20.88532 -3.49189,31.17475 -7.6438,16.04034 -19.62872,26.43524 -36.47369,31.34265 -24.05618,7.00818 -52.77817,-5.62061 -63.36102,-28.64288 1.4281,-0.75348 2.57989,-1.09626 3.97927,-1.20258 1.71662,2.03412 3.25718,3.77838 4.6435,5.63775 11.92914,15.99946 32.4205,23.57337 51.5964,18.72223 2.99414,-0.7575 5.64899,-2.85608 8.74622,-4.40387 0.4751,-0.11828 0.66479,-0.16723 1.20685,-0.24218 3.39795,-2.26801 6.44348,-4.51001 9.53235,-6.79029 0.0435,-0.0383 0.12457,-0.12097 0.4776,-0.11688 1.49578,-0.58411 2.96569,-0.89624 3.73077,-1.8031 7.93536,-9.40594 13.84174,-19.8432 13.73462,-32.51892 -0.0609,-7.21741 -1.24042,-14.42535 -1.9259,-22.01172 0.90893,-2.77798 -4.54639,-5.44376 0.29077,-7.68658 z"
       id="path228"
       style="stroke:url(#linearGradient247);stroke-opacity:1;stroke-width:11.1;stroke-dasharray:none" /><path
       fill="#bc5c76"
       opacity="1"
       stroke="none"
       d="m 561.21301,496.54367 c -4.78381,2.60522 0.67151,5.271 -0.57214,7.96323 -2.09125,-2.30515 -3.85755,-4.89865 -5.63232,-7.49945 -0.009,-0.007 -0.0211,-0.0257 -0.0272,-0.3779 -1.29504,-1.46305 -2.5838,-2.57392 -4.00848,-3.93375 -0.41358,-0.74316 -0.69135,-1.23733 -1.02069,-2.08032 -1.33478,-1.44403 -2.61792,-2.53928 -4.04639,-3.83234 -0.36163,-0.44708 -0.61059,-0.65793 -0.9494,-1.16821 -2.00775,-1.77014 -3.95819,-3.2023 -5.92304,-4.63538 -0.0143,-9.1e-4 -0.0276,-0.0264 -0.19348,-0.32214 -9.04077,-8.7041 -29.00073,-10.75894 -41.05764,-4.80978 -2.09717,1.03482 -3.88138,2.70376 -5.81034,4.09667 -2.1e-4,0.0168 -0.0335,0.0218 -0.39282,0.0373 -7.17636,2.77075 -11.89508,7.80722 -15.5874,14.24206 -0.0498,0.41459 -0.0685,0.58054 -0.41272,0.84223 -3.38428,5.08487 -7.53848,9.72116 -9.28208,15.13397 -4.09112,12.7005 -1.78268,25.36841 2.68876,37.68329 -1.1518,0.34277 -2.30359,0.68555 -3.81592,1.08935 -5.81406,-8.2575 -7.30539,-17.51123 -6.75486,-27.23053 0.0926,-1.63519 0.39164,-3.25866 0.58097,-5.31909 4.17422,-19.8999 14.57068,-34.70602 32.79343,-44.04852 16.57119,-7.43274 32.62027,-7.10513 48.69271,1.67017 6.75757,6.51223 13.18933,12.95306 19.54132,19.47167 0.62854,0.64502 0.76929,1.76536 1.18976,3.02744 z"
       id="path229"
       style="stroke:url(#linearGradient247);stroke-opacity:1;stroke-width:11.1;stroke-dasharray:none" /><path
       fill="#bc5c76"
       opacity="1"
       stroke="none"
       d="m 601.11005,452.86139 c 2.30261,-2.8e-4 4.60522,-5.2e-4 7.81695,0.0433 6.30823,0.0785 11.7074,0.11298 17.10657,0.1474 -1.85999,0.65125 -3.71686,1.85886 -5.58038,1.86933 -23.4242,0.13132 -46.84937,0.091 -70.2743,0.0903 -2.84393,-9e-5 -5.81012,-0.29236 -7.10955,3.59186 -12.09571,0.40585 -24.11347,0.44879 -36.72794,0.10083 -3.36713,-2.22299 -6.04074,-2.99305 -8.34247,0.31536 -16.35565,0.12809 -32.71127,0.25614 -49.88089,0.35779 -2.26764,0.13095 -3.72128,0.28833 -5.17493,0.44568 -0.72,-0.0133 -1.44003,-0.0266 -2.83178,-0.17358 -2.50455,-0.0194 -4.33728,0.0947 -6.17005,0.20895 -11.73397,-0.24774 -23.47125,-0.39557 -35.20083,-0.77774 -8.0661,-0.26288 -15.08786,-3.3685 -21.46808,-8.76611 -2.33139,-2.82102 -4.35455,-5.5293 -6.34995,-8.99192 -0.4458,-4.58834 -1.10202,-8.41259 -1.30758,-12.26092 -0.0887,-1.65955 0.75537,-3.36896 1.25699,-4.6579 0.71969,11.50437 12.72372,26.74048 22.17855,26.91696 1.03632,0.42047 1.99723,0.5419 3.332,0.67627 1.12079,0.0586 1.86765,0.10416 2.66437,0.40137 0.68881,0.35706 1.32776,0.46246 1.96668,0.56787 11.3417,0.29907 22.68341,0.59818 34.92776,0.94196 19.38965,0.0593 37.87674,0.10077 56.3635,0.0402 1.56765,-0.005 3.13308,-0.69229 4.69955,-1.06262 25.66025,0.005 51.32053,0.0107 77.89713,0.0525 3.97937,-0.28849 7.04248,-0.61353 10.10559,-0.93854 2.36645,-0.001 4.73285,-0.002 7.85596,0.24707 3.25341,0.37149 5.7503,0.49292 8.24713,0.61432 z"
       id="path230"
       style="stroke:url(#linearGradient247);stroke-opacity:1;stroke-width:11.1;stroke-dasharray:none" /><path
       fill="#bb5b8c"
       opacity="1"
       stroke="none"
       d="m 498.44171,459.06433 c 1.85895,-3.35297 4.53256,-2.58291 7.43244,-0.39758 -2.24363,0.38287 -4.61667,0.41254 -7.43244,0.39758 z"
       id="path231"
       style="stroke:url(#linearGradient247);stroke-opacity:1;stroke-width:11.1;stroke-dasharray:none" /><path
       fill="#eba5b3"
       opacity="1"
       stroke="none"
       d="m 443.11151,460.1182 c 1.28525,-0.45231 2.73889,-0.60969 4.55176,-0.63511 -0.83768,2.67957 -2.37317,3.21527 -4.55176,0.63511 z"
       id="path232"
       style="stroke:url(#linearGradient247);stroke-opacity:1;stroke-width:11.1;stroke-dasharray:none" /><path
       fill="#eba5b3"
       opacity="1"
       stroke="none"
       d="m 434.21829,460.11212 c 1.55576,-0.36773 3.38849,-0.4819 5.53403,-0.4314 -1.54379,0.33811 -3.40042,0.51154 -5.53403,0.4314 z"
       id="path233"
       style="stroke:url(#linearGradient247);stroke-opacity:1;stroke-width:11.1;stroke-dasharray:none" /><path
       fill="#eba5b3"
       opacity="1"
       stroke="none"
       d="m 557.06128,459.53589 c 0.99969,-0.35947 2.08282,-0.40338 3.56909,-0.38123 -0.032,0.8779 -0.46704,1.68973 -0.9021,2.50159 -0.8612,-0.60159 -1.72235,-1.20319 -2.66699,-2.12036 z"
       id="path234"
       style="stroke:url(#linearGradient247);stroke-opacity:1;stroke-width:11.1;stroke-dasharray:none" /><path
       fill="#bb5b8c"
       opacity="1"
       stroke="none"
       d="m 370.79056,424.00623 c -0.42035,1.68673 -1.26438,3.39614 -1.17572,5.05569 0.20556,3.84833 0.86178,7.67258 1.27548,11.91684 -8.00015,-9.0759 -8.86282,-19.95291 -6.11231,-31.4285 2.76334,-11.5289 9.93735,-20.48984 17.49503,-29.1781 2.83334,-3.25723 5.74466,-6.44665 8.79797,-9.95566 4.12888,-4.03994 8.0802,-7.79116 12.30796,-11.73117 3.71344,2.7948 4.91971,-0.80066 6.96255,-2.32611 1.79187,-1.33798 3.89649,-2.2572 6.26309,-3.366 -0.56182,1.45874 -1.5238,2.92209 -2.50525,4.71833 -0.31939,0.48047 -0.57251,0.6857 -1.22253,1.27929 -11.03903,11.56943 -21.85763,22.60901 -32.13635,34.13022 -5.21228,5.84238 -9.1146,12.71118 -10.18527,20.94669 -0.12409,1.04712 0.0274,1.99826 0.34909,3.21887 0.0755,2.41953 -0.0191,4.56958 -0.11374,6.71961 z"
       id="path235"
       style="stroke:url(#linearGradient247);stroke-opacity:1;stroke-width:11.1;stroke-dasharray:none" /><path
       fill="#9b4f6d"
       opacity="1"
       stroke="none"
       d="m 399.04675,452.39862 c -0.0518,-0.4472 -0.0538,-0.64276 -0.0551,-1.13196 0.44058,-0.28598 0.88061,-0.27832 1.65002,-0.272 0.3443,0.43732 0.35919,0.87601 0.37296,1.64325 -0.64008,0.22317 -1.27903,0.11777 -1.96784,-0.23929 z"
       id="path236"
       style="stroke:url(#linearGradient247);stroke-opacity:1;stroke-width:11.1;stroke-dasharray:none" /><path
       fill="#bc5c76"
       opacity="1"
       stroke="none"
       d="m 628.30493,453.26779 c -0.28845,-0.66916 -0.2774,-1.11047 -0.25647,-1.88138 0.73987,-0.35357 1.46979,-0.37759 2.56476,-0.41345 2.47839,-0.2887 4.59161,-0.56561 7.05908,-0.88647 -1.5589,4.45678 -5.26349,4.06933 -9.36737,3.1813 z"
       id="path237"
       style="stroke:url(#linearGradient247);stroke-opacity:1;stroke-width:11.1;stroke-dasharray:none" /><path
       fill="#9b4f6d"
       opacity="1"
       stroke="none"
       d="m 584.69104,451.75134 c -2.74719,0.57367 -5.8103,0.89871 -9.32672,1.18283 2.70142,-0.50442 5.85614,-0.96795 9.32672,-1.18283 z"
       id="path238"
       style="stroke:url(#linearGradient247);stroke-opacity:1;stroke-width:11.1;stroke-dasharray:none" /><path
       fill="#9b4f6d"
       opacity="1"
       stroke="none"
       d="m 600.95471,452.52551 c -2.34149,0.21448 -4.83838,0.0931 -7.64844,-0.27633 2.28888,-0.18515 4.89094,-0.12238 7.64844,0.27633 z"
       id="path239"
       style="stroke:url(#linearGradient247);stroke-opacity:1;stroke-width:11.1;stroke-dasharray:none" /><path
       fill="#9b4f6d"
       opacity="1"
       stroke="none"
       d="m 535.42615,567.83356 c 2.70532,-2.20331 5.76306,-4.43268 9.1549,-6.70703 -2.71142,2.19702 -5.75695,4.43902 -9.1549,6.70703 z"
       id="path240"
       style="stroke:url(#linearGradient247);stroke-opacity:1;stroke-width:11.1;stroke-dasharray:none" /><path
       fill="#9b4f6d"
       opacity="1"
       stroke="none"
       d="m 491.57904,479.98163 c -4.72104,4.6224 -9.80145,9.2604 -15.21906,13.94592 3.32398,-6.1387 8.0427,-11.17517 15.21906,-13.94592 z"
       id="path241"
       style="stroke:url(#linearGradient247);stroke-opacity:1;stroke-width:11.1;stroke-dasharray:none" /><path
       fill="#9b4f6d"
       opacity="1"
       stroke="none"
       d="m 544.95636,485.61493 c -1.90131,-1.09284 -3.85986,-2.52362 -5.86359,-4.2944 1.9054,1.0921 3.85584,2.52426 5.86359,4.2944 z"
       id="path242"
       style="stroke:url(#linearGradient247);stroke-opacity:1;stroke-width:11.1;stroke-dasharray:none" /><path
       fill="#9b4f6d"
       opacity="1"
       stroke="none"
       d="m 554.98132,496.62955 c -1.27124,-0.76547 -2.54864,-1.88312 -3.84936,-3.34275 1.26556,0.76883 2.55432,1.8797 3.84936,3.34275 z"
       id="path243"
       style="stroke:url(#linearGradient247);stroke-opacity:1;stroke-width:11.1;stroke-dasharray:none" /><path
       fill="#9b4f6d"
       opacity="1"
       stroke="none"
       d="m 549.95215,490.61551 c -1.23889,-0.75345 -2.52936,-1.85571 -3.86048,-3.29627 1.24256,0.75696 2.5257,1.85221 3.86048,3.29627 z"
       id="path244"
       style="stroke:url(#linearGradient247);stroke-opacity:1;stroke-width:11.1;stroke-dasharray:none" /><path
       fill="#9b4f6d"
       opacity="1"
       stroke="none"
       d="m 393.05038,451.32098 c 0.77671,-0.13067 1.62882,0.0377 2.71952,0.4347 -0.72229,0.1072 -1.6832,-0.0142 -2.71952,-0.4347 z"
       id="path245"
       style="stroke:url(#linearGradient247);stroke-opacity:1;stroke-width:11.1;stroke-dasharray:none" /></g></g><g
   inkscape:groupmode="layer"
   id="layer1"
   inkscape:label="main"><g
     id="g262"
     transform="translate(-2.3052989)"><g
       id="g247"
       style="opacity:0.955752;stroke:url(#linearGradient276);stroke-width:11.1;stroke-dasharray:none;stroke-opacity:1;filter:url(#filter246)"><g
         id="g204"
         style="stroke:url(#linearGradient275);stroke-width:11.1;stroke-dasharray:none;stroke-opacity:1"><path
           fill="#f3af9d"
           opacity="1"
           stroke="none"
           d="m 587.03601,547.99109 c -9.09033,28.82678 -28.55566,46.3117 -58.12927,51.95196 -39.24149,7.48401 -77.38217,-15.43072 -88.74805,-53.708 -2.58185,-8.69489 -1.91592,-18.35413 -2.23584,-27.75519 2.63904,2.64227 4.61258,4.48132 8.67767,2.12933 3.75922,-2.17493 8.22587,-3.12713 12.39527,-4.18628 -0.18933,2.06043 -0.48834,3.6839 -0.58097,5.31909 -0.55053,9.7193 0.9408,18.97303 6.47855,27.64118 10.94339,22.9613 39.66538,35.59009 63.72156,28.58191 16.84497,-4.90741 28.82989,-15.30231 36.763,-30.85816 0.59088,0.32196 0.9809,0.47889 1.07855,0.74366 3.4137,9.26062 10.31506,10.51873 16.72431,3.11578 1.04132,-1.20282 2.55816,-1.9939 3.85522,-2.97528 z"
           id="path192"
           style="stroke:url(#linearGradient262);stroke-width:11.1;stroke-dasharray:none;stroke-opacity:1" /><path
           fill="#eba5b3"
           opacity="1"
           stroke="none"
           d="m 587.20654,547.64789 c -1.46759,1.32458 -2.98443,2.11566 -4.02575,3.31848 -6.40925,7.40295 -13.31061,6.14484 -16.72431,-3.11578 -0.0977,-0.26477 -0.48767,-0.4217 -1.03064,-1.11341 3.97449,-10.40417 4.95246,-20.92767 3.15467,-31.28949 -1.11225,-6.41058 -4.78876,-12.37625 -7.3675,-18.90402 -0.42047,-1.26208 -0.56122,-2.38242 -1.18976,-3.02744 -6.35199,-6.51861 -12.78375,-12.95944 -18.75482,-19.44592 4.94214,1.08908 9.44605,2.20206 14.91852,3.55435 0.20978,-1.88635 0.0681,-4.84069 0.97888,-7.42395 0.69098,-1.96002 2.43146,-4.36184 4.22479,-4.93209 2.72144,-0.86533 6.55811,-0.90171 7.31159,3.02819 0.87799,4.57944 3.96692,6.04587 7.71228,6.48453 8.05762,0.94373 16.14819,1.72519 24.2475,2.15558 6.47168,0.34393 12.98163,-0.0744 19.46222,0.17096 1.67059,0.0632 3.29473,1.35205 4.94024,2.07791 -2.94629,0.24619 -5.89074,0.67764 -8.83911,0.70569 -11.12884,0.10574 -22.25897,0.07 -33.38849,0.11487 -1.77057,0.007 -3.54059,0.15634 -6.01629,0.2731 3.45404,7.82974 6.62506,15.01797 10.04174,22.46725 3.8451,15.00537 4.94489,29.7649 0.34424,44.90119 z"
           id="path193"
           style="stroke:url(#linearGradient263);stroke-width:11.1;stroke-dasharray:none;stroke-opacity:1" /><path
           fill="#eba5b3"
           opacity="1"
           stroke="none"
           d="m 458.98144,515.99133 c -4.15505,1.49073 -8.6217,2.44293 -12.38092,4.61786 -4.06509,2.35199 -6.03863,0.51294 -8.48532,-2.49524 1.36045,-6.90268 3.03763,-13.62518 5.02137,-20.95093 3.12869,-6.01055 5.95083,-11.41781 8.79507,-17.26391 0.28775,-6.29059 5.27292,-10.23349 11.2814,-9.87912 3.85666,0.22754 7.79267,-0.70621 11.6301,-0.3794 5.75485,0.49015 11.45434,1.62998 16.94608,2.7338 -18.22275,9.3425 -28.61921,24.14862 -32.80778,43.61694 z"
           id="path194"
           style="stroke:url(#linearGradient264);stroke-width:11.1;stroke-dasharray:none;stroke-opacity:1" /><path
           fill="#eaadc0"
           opacity="1"
           stroke="none"
           d="m 451.93164,479.89911 c -14.49268,0.35745 -28.98846,-0.29898 -43.42783,0.33307 -20.35717,0.89102 -37.58032,-5.33838 -52.11764,-20.48538 -0.48367,-1.2399 -0.61337,-1.95417 -0.36334,-2.64328 3.98788,1.33004 7.40661,5.9107 11.44885,0.50552 0.36749,-0.49136 2.3978,0.30304 3.66281,0.43277 3.94843,0.40497 7.90015,0.77743 11.85056,1.1625 0.13378,-0.44308 0.26754,-0.88613 0.40133,-1.32919 -3.04144,-1.86572 -7.64672,-2.53 -6.11401,-7.56036 6.38022,5.39761 13.40198,8.50323 21.46808,8.76611 11.72958,0.38217 23.46686,0.53 35.47784,1.03131 2.13361,0.0801 3.99024,-0.0934 6.20581,-0.29785 1.07898,-0.0177 1.79901,-0.004 2.68741,0.30383 2.17859,2.5802 3.71408,2.0445 5.36575,-0.60864 16.8104,-0.23361 33.16602,-0.36166 49.96445,-0.44519 2.81577,0.015 5.18881,-0.0147 8.02911,-0.007 12.48505,-0.005 24.50281,-0.0482 36.98371,-0.0425 4.81653,0.1008 9.16992,0.15298 13.60675,0.52075 0.94464,0.91717 1.80579,1.51877 2.66699,2.12036 0.43506,-0.81186 0.87012,-1.62369 1.76941,-2.48239 20.96136,-0.0837 41.46014,0.006 61.95453,-0.25449 4.59088,-0.0583 9.33704,-0.79431 13.7171,-2.16195 13.77387,-4.30066 21.32605,-14.6352 25.90747,-27.55585 1.07581,1.31976 1.901,2.3916 2.7262,3.46347 0.88031,-0.88068 2.20093,-1.61063 2.56293,-2.66861 1.38836,-4.05734 4.55078,-2.7074 7.36926,-2.86295 2.77234,-0.15304 5.52081,-0.73837 8.27972,-1.13403 -1.5943,6.43149 -3.18866,12.86298 -4.8031,19.66193 -8.71338,17.04712 -22.00183,27.93756 -41.09302,32.16623 -4.28326,-0.46888 -8.13848,-2.60514 -11.11505,1.27795 -0.43072,0.031 -0.86151,0.062 -1.61578,0.0866 -1.969,-0.73227 -3.59314,-2.02109 -5.26373,-2.08432 -6.48059,-0.24539 -12.99054,0.17297 -19.46222,-0.17096 -8.09931,-0.43039 -16.18988,-1.21185 -24.2475,-2.15558 -3.74536,-0.43866 -6.83429,-1.90509 -7.71228,-6.48453 -0.75348,-3.9299 -4.59015,-3.89352 -7.31159,-3.02819 -1.79333,0.57025 -3.53381,2.97207 -4.22479,4.93209 -0.91076,2.58326 -0.7691,5.5376 -0.97888,7.42395 -5.47247,-1.35229 -9.97638,-2.46527 -15.26678,-3.60394 -16.51068,-8.75146 -32.55976,-9.07907 -48.89963,-1.88663 -5.72306,-0.86352 -11.42255,-2.00335 -17.1774,-2.4935 -3.83743,-0.32681 -7.77344,0.60694 -11.6301,0.3794 -6.00848,-0.35437 -10.99365,3.58853 -11.2814,9.87912 z"
           id="path195"
           style="stroke:url(#linearGradient265);stroke-width:11.1;stroke-dasharray:none;stroke-opacity:1" /><path
           fill="#e1add1"
           opacity="1"
           stroke="none"
           d="m 684.08618,425.59271 c -2.8302,0.8024 -5.57867,1.38773 -8.35101,1.54077 -2.81848,0.15555 -5.9809,-1.19439 -7.36926,2.86295 -0.362,1.05798 -1.68262,1.78793 -2.56293,2.66861 -0.8252,-1.07187 -1.65039,-2.14371 -2.70325,-3.89777 -0.17138,-5.94101 0.45715,-11.26864 -0.16553,-16.44577 -1.90081,-15.80279 -10.29229,-27.53357 -23.89398,-36.07394 -1.3717,-2.53122 -3.48022,-4.66052 -3.72247,-6.98441 -0.91553,-8.78198 5.62524,-12.91058 15.33783,-10.05484 16.33124,11.76581 27.94586,26.93711 32.33368,46.79801 1.3648,6.1777 0.83221,12.77462 1.09692,19.58639 z"
           id="path196"
           style="stroke:url(#linearGradient266);stroke-width:11.1;stroke-dasharray:none;stroke-opacity:1" /><path
           id="path197"
           d="m 513.03125,245.5625 c -14.44878,0.10902 -28.91106,4.07299 -42.03906,12.17969 -9.00613,5.56139 -16.27711,13.9329 -24.34375,21.01562 -0.15857,1.54596 -0.31058,3.09159 -0.47656,4.63672 -0.14664,1.36484 -0.30808,2.7298 -0.4629,4.09375 1.34085,0.12402 2.67976,0.29599 4.02344,0.36133 2.72198,0.13241 5.45453,0.10092 8.16602,0.33789 2.22174,0.19415 4.41846,0.67822 7.0039,1.09766 0.3779,0.0633 0.366,-0.057 0.31446,-0.0899 0.99899,-1.07376 2.0488,-2.11557 3.46484,-3.16601 15.42378,-14.31295 33.23082,-20.83429 53.96289,-18.49414 15.03246,1.6968 27.05592,9.5395 37.80078,19.61328 l 21.94141,22.34961 c 2.56085,2.52569 4.81006,4.50665 6.97461,6.57422 6.98235,6.66942 13.81446,13.50089 20.9375,20.01562 4.87921,4.46261 9.98743,4.1546 14.67383,-0.30664 4.64959,-4.42626 4.93786,-8.78241 0.87304,-14.17773 -1.39923,-1.85718 -2.90967,-3.63056 -4.65429,-5.54493 -8.50268,-7.78466 -16.71974,-15.46656 -24.9375,-23.14843 -9.05528,-6.02533 -16.54937,-16.00547 -24.16211,-24.03125 -16.85471,-15.40202 -37.9431,-23.47575 -59.06055,-23.31641 z"
           style="fill:#d9b2e7;fill-opacity:1;stroke:url(#linearGradient267);stroke-width:11.1;stroke-dasharray:none;stroke-opacity:1"
           sodipodi:nodetypes="sscscsscccsccsssscccs" /><path
           fill="#d9b2e7"
           opacity="1"
           stroke="none"
           d="m 446.36606,278.90894 c 0.12427,1.39465 -0.0286,2.94116 -0.19461,4.48629 -0.14664,1.36484 -0.30793,2.72812 -0.46274,4.09207 1.34085,0.12403 2.67935,0.29651 4.02304,0.36185 2.72198,0.13242 5.45599,0.10114 8.16748,0.33811 2.22174,0.19415 4.41803,0.67919 6.89752,1.41052 -3.89459,5.61752 -8.06112,10.8598 -12.51874,16.23584 -0.93112,0.65548 -1.64257,1.11053 -2.20077,1.70865 -14.80515,15.86343 -29.60419,31.73263 -44.36188,47.64019 -0.86841,0.9361 -1.38153,2.20179 -2.33639,3.50287 -4.22776,3.94001 -8.17908,7.69123 -12.49701,11.2771 -2.53949,-0.81778 -5.42221,-2.20419 -5.69766,1.46714 -0.38208,5.09225 -3.67872,5.0187 -6.95661,4.4049 -3.86609,-0.72397 -7.59442,-2.1835 -11.9126,-3.48373 -1.1351,1.28076 -2.98062,3.3631 -5.5469,6.2587 -0.45169,-2.48816 -0.67395,-3.71253 -0.89618,-4.93689 4.64191,-5.60715 9.05948,-11.41983 13.97086,-16.78006 11.4299,-12.4747 23.10873,-24.7211 34.64398,-37.09983 0.75961,-0.81512 1.15884,-1.96609 1.91092,-3.27765 7.20495,-7.48816 14.2789,-14.60754 21.22598,-21.84863 4.90887,-5.11664 9.64581,-10.39822 14.74231,-15.75744 z"
           id="path198"
           style="stroke:url(#linearGradient268);stroke-width:11.1;stroke-dasharray:none;stroke-opacity:1" /><path
           fill="#e1add1"
           opacity="1"
           stroke="none"
           d="m 359.59192,373.88 c 0.50232,1.01691 0.72458,2.24128 1.17627,4.72944 2.56628,-2.8956 4.4118,-4.97794 5.5469,-6.2587 4.31818,1.30023 8.04651,2.75976 11.9126,3.48373 3.27789,0.6138 6.57453,0.68735 6.95661,-4.4049 0.27545,-3.67133 3.15817,-2.28492 5.52011,-1.17847 -2.68671,3.67441 -5.59803,6.86383 -8.43137,10.12106 -7.55768,8.68826 -14.73169,17.6492 -17.49503,29.1781 -2.75051,11.47559 -1.88784,22.3526 6.08454,32.18283 2.05527,3.05237 4.07843,5.76065 6.10159,8.46897 -1.22448,5.14306 3.3808,5.80734 6.42224,7.67306 -0.13379,0.44306 -0.26755,0.88611 -0.40133,1.32919 -3.95041,-0.38507 -7.90213,-0.75753 -11.85056,-1.1625 -1.26501,-0.12973 -3.29532,-0.92413 -3.66281,-0.43277 -4.04224,5.40518 -7.46097,0.82452 -11.44885,-0.50552 -13.45182,-16.84052 -15.42679,-35.86722 -11.50418,-56.05091 0.34637,-1.78232 0.95867,-3.51294 1.51211,-5.65387 4.47009,-7.3613 8.87558,-14.33627 13.56116,-21.51874 z"
           id="path199"
           style="stroke:url(#linearGradient269);stroke-width:11.1;stroke-dasharray:none;stroke-opacity:1" /><g
           id="g203"
           style="stroke:url(#linearGradient274);stroke-width:11.1;stroke-dasharray:none;stroke-opacity:1"><path
             fill="#bd88cc"
             opacity="1"
             stroke="none"
             d="m 529.87146,341.82288 c -9.75446,11.7355 -24.49435,14.21551 -35.84509,6.30081 -10.69233,-7.45551 -14.05362,-23.56253 -7.27506,-34.86118 7.32178,-12.20407 23.20795,-16.49389 35.80814,-9.66937 11.31225,6.12689 15.75512,21.57419 9.75885,34.04095 -0.64697,1.34507 -1.49585,2.59302 -2.44684,4.18879 m -8.26538,-4.83365 c 6.63129,-10.71842 3.21918,-22.96771 -7.19147,-25.81687 -7.84646,-2.14737 -16.27258,1.44272 -19.49765,8.30735 -3.30661,7.03833 -1.05707,16.25289 5.04001,20.64465 6.51651,4.69391 14.97876,3.66882 21.64911,-3.13513 z"
             id="path200"
             style="stroke:url(#linearGradient270);stroke-width:11.1;stroke-dasharray:none;stroke-opacity:1" /><path
             fill="#cd91be"
             opacity="1"
             stroke="none"
             d="m 580.83313,412.09851 c -10.99255,-0.23556 -18.11615,-5.78735 -19.78656,-15.06839 -1.66821,-9.26913 2.91803,-17.93036 11.53479,-21.42273 7.15002,-2.89789 13.86762,-1.79278 19.37176,3.54901 5.6532,5.48645 7.7721,12.43796 5.32044,20.06674 -2.44159,7.59772 -7.76697,12.18171 -16.44043,12.87537 m 7.84894,-17.1333 c 0.50403,-4.69809 -0.63172,-9.10852 -5.33771,-10.5513 -2.69568,-0.82642 -6.63739,-0.16736 -9.0769,1.34311 -3.82148,2.36612 -4.73896,6.66879 -3.16114,11.03226 1.37909,3.8139 4.38062,5.85894 8.36432,5.94207 4.74842,0.0992 7.69544,-2.5177 9.21143,-7.76614 z"
             id="path201"
             style="stroke:url(#linearGradient271);stroke-width:11.1;stroke-dasharray:none;stroke-opacity:1" /><path
             fill="#cd91be"
             opacity="1"
             stroke="none"
             d="m 448.09424,408.29193 c -2.22861,0.45456 -4.20407,0.71018 -6.54981,1.03516 -14.64807,-2.78559 -20.07263,-14.19187 -12.24533,-24.95221 3.74118,-5.14313 8.81513,-7.68845 15.13272,-6.58612 6.49778,1.13376 10.60666,5.38 12.41016,11.60629 1.827,6.3074 0.29706,11.853 -4.78958,16.19546 -1.12628,0.96152 -2.46439,1.6749 -3.95816,2.70142 m -13.16522,-14.66934 c 0.0187,3.39062 1.46307,6.32132 4.90417,6.32556 2.44208,0.003 5.89413,-1.29926 7.04718,-3.16257 1.15824,-1.87176 0.72476,-5.4945 -0.33981,-7.712 -0.73474,-1.53049 -4.45212,-3.26584 -5.56598,-2.64179 -2.42719,1.35987 -4.04291,4.16815 -6.04556,7.1908 z"
             id="path202"
             style="stroke:url(#linearGradient272);stroke-width:11.1;stroke-dasharray:none;stroke-opacity:1" /><path
             fill="#c7645a"
             opacity="1"
             stroke="none"
             d="m 527.54987,531.71692 c 0.65667,9.09723 -4.72766,15.58954 -12.89545,16.04968 -8.18491,0.46106 -14.74786,-5.33063 -15.09039,-13.31714 -0.25409,-5.92358 3.63073,-11.3717 9.4447,-13.24554 6.1156,-1.97107 12.85608,0.44537 16.58862,6.07233 0.81177,1.22363 1.24854,2.69604 1.95252,4.44067 m -17.27607,0.0259 c -1.35025,2.68121 -1.66742,5.37799 1.8794,6.16589 1.51172,0.33582 3.70654,-0.72839 5.01495,-1.83636 0.68744,-0.5821 0.49207,-3.698 0.0774,-3.83789 -2.04754,-0.69068 -4.30169,-0.76893 -6.97174,-0.49164 z"
             id="path203"
             style="stroke:url(#linearGradient273);stroke-width:11.1;stroke-dasharray:none;stroke-opacity:1" /></g></g></g><g
       id="g190"><path
         fill="#f3af9d"
         opacity="1"
         stroke="none"
         d="m 587.03601,547.99109 c -9.09033,28.82678 -28.55566,46.3117 -58.12927,51.95196 -39.24149,7.48401 -77.38217,-15.43072 -88.74805,-53.708 -2.58185,-8.69489 -1.91592,-18.35413 -2.23584,-27.75519 2.63904,2.64227 4.61258,4.48132 8.67767,2.12933 3.75922,-2.17493 8.22587,-3.12713 12.39527,-4.18628 -0.18933,2.06043 -0.48834,3.6839 -0.58097,5.31909 -0.55053,9.7193 0.9408,18.97303 6.47855,27.64118 10.94339,22.9613 39.66538,35.59009 63.72156,28.58191 16.84497,-4.90741 28.82989,-15.30231 36.763,-30.85816 0.59088,0.32196 0.9809,0.47889 1.07855,0.74366 3.4137,9.26062 10.31506,10.51873 16.72431,3.11578 1.04132,-1.20282 2.55816,-1.9939 3.85522,-2.97528 z"
         id="path107" /><path
         fill="#eba5b3"
         opacity="1"
         stroke="none"
         d="m 587.20654,547.64789 c -1.46759,1.32458 -2.98443,2.11566 -4.02575,3.31848 -6.40925,7.40295 -13.31061,6.14484 -16.72431,-3.11578 -0.0977,-0.26477 -0.48767,-0.4217 -1.03064,-1.11341 3.97449,-10.40417 4.95246,-20.92767 3.15467,-31.28949 -1.11225,-6.41058 -4.78876,-12.37625 -7.3675,-18.90402 -0.42047,-1.26208 -0.56122,-2.38242 -1.18976,-3.02744 -6.35199,-6.51861 -12.78375,-12.95944 -18.75482,-19.44592 4.94214,1.08908 9.44605,2.20206 14.91852,3.55435 0.20978,-1.88635 0.0681,-4.84069 0.97888,-7.42395 0.69098,-1.96002 2.43146,-4.36184 4.22479,-4.93209 2.72144,-0.86533 6.55811,-0.90171 7.31159,3.02819 0.87799,4.57944 3.96692,6.04587 7.71228,6.48453 8.05762,0.94373 16.14819,1.72519 24.2475,2.15558 6.47168,0.34393 12.98163,-0.0744 19.46222,0.17096 1.67059,0.0632 3.29473,1.35205 4.94024,2.07791 -2.94629,0.24619 -5.89074,0.67764 -8.83911,0.70569 -11.12884,0.10574 -22.25897,0.07 -33.38849,0.11487 -1.77057,0.007 -3.54059,0.15634 -6.01629,0.2731 3.45404,7.82974 6.62506,15.01797 10.04174,22.46725 3.8451,15.00537 4.94489,29.7649 0.34424,44.90119 z"
         id="path108" /><path
         fill="#eba5b3"
         opacity="1"
         stroke="none"
         d="m 458.98144,515.99133 c -4.15505,1.49073 -8.6217,2.44293 -12.38092,4.61786 -4.06509,2.35199 -6.03863,0.51294 -8.48532,-2.49524 1.36045,-6.90268 3.03763,-13.62518 5.02137,-20.95093 3.12869,-6.01055 5.95083,-11.41781 8.79507,-17.26391 0.28775,-6.29059 5.27292,-10.23349 11.2814,-9.87912 3.85666,0.22754 7.79267,-0.70621 11.6301,-0.3794 5.75485,0.49015 11.45434,1.62998 16.94608,2.7338 -18.22275,9.3425 -28.61921,24.14862 -32.80778,43.61694 z"
         id="path109" /><path
         fill="#eaadc0"
         opacity="1"
         stroke="none"
         d="m 451.93164,479.89911 c -14.49268,0.35745 -28.98846,-0.29898 -43.42783,0.33307 -20.35717,0.89102 -37.58032,-5.33838 -52.11764,-20.48538 -0.48367,-1.2399 -0.61337,-1.95417 -0.36334,-2.64328 3.98788,1.33004 7.40661,5.9107 11.44885,0.50552 0.36749,-0.49136 2.3978,0.30304 3.66281,0.43277 3.94843,0.40497 7.90015,0.77743 11.85056,1.1625 0.13378,-0.44308 0.26754,-0.88613 0.40133,-1.32919 -3.04144,-1.86572 -7.64672,-2.53 -6.11401,-7.56036 6.38022,5.39761 13.40198,8.50323 21.46808,8.76611 11.72958,0.38217 23.46686,0.53 35.47784,1.03131 2.13361,0.0801 3.99024,-0.0934 6.20581,-0.29785 1.07898,-0.0177 1.79901,-0.004 2.68741,0.30383 2.17859,2.5802 3.71408,2.0445 5.36575,-0.60864 16.8104,-0.23361 33.16602,-0.36166 49.96445,-0.44519 2.81577,0.015 5.18881,-0.0147 8.02911,-0.007 12.48505,-0.005 24.50281,-0.0482 36.98371,-0.0425 4.81653,0.1008 9.16992,0.15298 13.60675,0.52075 0.94464,0.91717 1.80579,1.51877 2.66699,2.12036 0.43506,-0.81186 0.87012,-1.62369 1.76941,-2.48239 20.96136,-0.0837 41.46014,0.006 61.95453,-0.25449 4.59088,-0.0583 9.33704,-0.79431 13.7171,-2.16195 13.77387,-4.30066 21.32605,-14.6352 25.90747,-27.55585 1.07581,1.31976 1.901,2.3916 2.7262,3.46347 0.88031,-0.88068 2.20093,-1.61063 2.56293,-2.66861 1.38836,-4.05734 4.55078,-2.7074 7.36926,-2.86295 2.77234,-0.15304 5.52081,-0.73837 8.27972,-1.13403 -1.5943,6.43149 -3.18866,12.86298 -4.8031,19.66193 -8.71338,17.04712 -22.00183,27.93756 -41.09302,32.16623 -4.28326,-0.46888 -8.13848,-2.60514 -11.11505,1.27795 -0.43072,0.031 -0.86151,0.062 -1.61578,0.0866 -1.969,-0.73227 -3.59314,-2.02109 -5.26373,-2.08432 -6.48059,-0.24539 -12.99054,0.17297 -19.46222,-0.17096 -8.09931,-0.43039 -16.18988,-1.21185 -24.2475,-2.15558 -3.74536,-0.43866 -6.83429,-1.90509 -7.71228,-6.48453 -0.75348,-3.9299 -4.59015,-3.89352 -7.31159,-3.02819 -1.79333,0.57025 -3.53381,2.97207 -4.22479,4.93209 -0.91076,2.58326 -0.7691,5.5376 -0.97888,7.42395 -5.47247,-1.35229 -9.97638,-2.46527 -15.26678,-3.60394 -16.51068,-8.75146 -32.55976,-9.07907 -48.89963,-1.88663 -5.72306,-0.86352 -11.42255,-2.00335 -17.1774,-2.4935 -3.83743,-0.32681 -7.77344,0.60694 -11.6301,0.3794 -6.00848,-0.35437 -10.99365,3.58853 -11.2814,9.87912 z"
         id="path111" /><path
         fill="#e1add1"
         opacity="1"
         stroke="none"
         d="m 684.08618,425.59271 c -2.8302,0.8024 -5.57867,1.38773 -8.35101,1.54077 -2.81848,0.15555 -5.9809,-1.19439 -7.36926,2.86295 -0.362,1.05798 -1.68262,1.78793 -2.56293,2.66861 -0.8252,-1.07187 -1.65039,-2.14371 -2.70325,-3.89777 -0.17138,-5.94101 0.45715,-11.26864 -0.16553,-16.44577 -1.90081,-15.80279 -10.29229,-27.53357 -23.89398,-36.07394 -1.3717,-2.53122 -3.48022,-4.66052 -3.72247,-6.98441 -0.91553,-8.78198 5.62524,-12.91058 15.33783,-10.05484 16.33124,11.76581 27.94586,26.93711 32.33368,46.79801 1.3648,6.1777 0.83221,12.77462 1.09692,19.58639 z"
         id="path113" /><path
         id="path118"
         d="m 513.03125,245.5625 c -14.44878,0.10902 -28.91106,4.07299 -42.03906,12.17969 -9.00613,5.56139 -16.27711,13.9329 -24.34375,21.01562 -0.15857,1.54596 -0.31058,3.09159 -0.47656,4.63672 -0.14664,1.36484 -0.30808,2.7298 -0.4629,4.09375 1.34085,0.12402 2.67976,0.29599 4.02344,0.36133 2.72198,0.13241 5.45453,0.10092 8.16602,0.33789 2.22174,0.19415 4.41846,0.67822 7.0039,1.09766 0.3779,0.0633 0.366,-0.057 0.31446,-0.0899 0.99899,-1.07376 2.0488,-2.11557 3.46484,-3.16601 15.42378,-14.31295 33.23082,-20.83429 53.96289,-18.49414 15.03246,1.6968 27.05592,9.5395 37.80078,19.61328 l 21.94141,22.34961 c 2.56085,2.52569 4.81006,4.50665 6.97461,6.57422 6.98235,6.66942 13.81446,13.50089 20.9375,20.01562 4.87921,4.46261 9.98743,4.1546 14.67383,-0.30664 4.64959,-4.42626 4.93786,-8.78241 0.87304,-14.17773 -1.39923,-1.85718 -2.90967,-3.63056 -4.65429,-5.54493 -8.50268,-7.78466 -16.71974,-15.46656 -24.9375,-23.14843 -9.05528,-6.02533 -16.54937,-16.00547 -24.16211,-24.03125 -16.85471,-15.40202 -37.9431,-23.47575 -59.06055,-23.31641 z"
         style="fill:#d9b2e7;fill-opacity:1"
         sodipodi:nodetypes="sscscsscccsccsssscccs" /><path
         fill="#d9b2e7"
         opacity="1"
         stroke="none"
         d="m 446.36606,278.90894 c 0.12427,1.39465 -0.0286,2.94116 -0.19461,4.48629 -0.14664,1.36484 -0.30793,2.72812 -0.46274,4.09207 1.34085,0.12403 2.67935,0.29651 4.02304,0.36185 2.72198,0.13242 5.45599,0.10114 8.16748,0.33811 2.22174,0.19415 4.41803,0.67919 6.89752,1.41052 -3.89459,5.61752 -8.06112,10.8598 -12.51874,16.23584 -0.93112,0.65548 -1.64257,1.11053 -2.20077,1.70865 -14.80515,15.86343 -29.60419,31.73263 -44.36188,47.64019 -0.86841,0.9361 -1.38153,2.20179 -2.33639,3.50287 -4.22776,3.94001 -8.17908,7.69123 -12.49701,11.2771 -2.53949,-0.81778 -5.42221,-2.20419 -5.69766,1.46714 -0.38208,5.09225 -3.67872,5.0187 -6.95661,4.4049 -3.86609,-0.72397 -7.59442,-2.1835 -11.9126,-3.48373 -1.1351,1.28076 -2.98062,3.3631 -5.5469,6.2587 -0.45169,-2.48816 -0.67395,-3.71253 -0.89618,-4.93689 4.64191,-5.60715 9.05948,-11.41983 13.97086,-16.78006 11.4299,-12.4747 23.10873,-24.7211 34.64398,-37.09983 0.75961,-0.81512 1.15884,-1.96609 1.91092,-3.27765 7.20495,-7.48816 14.2789,-14.60754 21.22598,-21.84863 4.90887,-5.11664 9.64581,-10.39822 14.74231,-15.75744 z"
         id="path119" /><path
         fill="#e1add1"
         opacity="1"
         stroke="none"
         d="m 359.59192,373.88 c 0.50232,1.01691 0.72458,2.24128 1.17627,4.72944 2.56628,-2.8956 4.4118,-4.97794 5.5469,-6.2587 4.31818,1.30023 8.04651,2.75976 11.9126,3.48373 3.27789,0.6138 6.57453,0.68735 6.95661,-4.4049 0.27545,-3.67133 3.15817,-2.28492 5.52011,-1.17847 -2.68671,3.67441 -5.59803,6.86383 -8.43137,10.12106 -7.55768,8.68826 -14.73169,17.6492 -17.49503,29.1781 -2.75051,11.47559 -1.88784,22.3526 6.08454,32.18283 2.05527,3.05237 4.07843,5.76065 6.10159,8.46897 -1.22448,5.14306 3.3808,5.80734 6.42224,7.67306 -0.13379,0.44306 -0.26755,0.88611 -0.40133,1.32919 -3.95041,-0.38507 -7.90213,-0.75753 -11.85056,-1.1625 -1.26501,-0.12973 -3.29532,-0.92413 -3.66281,-0.43277 -4.04224,5.40518 -7.46097,0.82452 -11.44885,-0.50552 -13.45182,-16.84052 -15.42679,-35.86722 -11.50418,-56.05091 0.34637,-1.78232 0.95867,-3.51294 1.51211,-5.65387 4.47009,-7.3613 8.87558,-14.33627 13.56116,-21.51874 z"
         id="path123" /><g
         id="g191"><path
           fill="#bd88cc"
           opacity="1"
           stroke="none"
           d="m 529.87146,341.82288 c -9.75446,11.7355 -24.49435,14.21551 -35.84509,6.30081 -10.69233,-7.45551 -14.05362,-23.56253 -7.27506,-34.86118 7.32178,-12.20407 23.20795,-16.49389 35.80814,-9.66937 11.31225,6.12689 15.75512,21.57419 9.75885,34.04095 -0.64697,1.34507 -1.49585,2.59302 -2.44684,4.18879 m -8.26538,-4.83365 c 6.63129,-10.71842 3.21918,-22.96771 -7.19147,-25.81687 -7.84646,-2.14737 -16.27258,1.44272 -19.49765,8.30735 -3.30661,7.03833 -1.05707,16.25289 5.04001,20.64465 6.51651,4.69391 14.97876,3.66882 21.64911,-3.13513 z"
           id="path179" /><path
           fill="#cd91be"
           opacity="1"
           stroke="none"
           d="m 580.83313,412.09851 c -10.99255,-0.23556 -18.11615,-5.78735 -19.78656,-15.06839 -1.66821,-9.26913 2.91803,-17.93036 11.53479,-21.42273 7.15002,-2.89789 13.86762,-1.79278 19.37176,3.54901 5.6532,5.48645 7.7721,12.43796 5.32044,20.06674 -2.44159,7.59772 -7.76697,12.18171 -16.44043,12.87537 m 7.84894,-17.1333 c 0.50403,-4.69809 -0.63172,-9.10852 -5.33771,-10.5513 -2.69568,-0.82642 -6.63739,-0.16736 -9.0769,1.34311 -3.82148,2.36612 -4.73896,6.66879 -3.16114,11.03226 1.37909,3.8139 4.38062,5.85894 8.36432,5.94207 4.74842,0.0992 7.69544,-2.5177 9.21143,-7.76614 z"
           id="path180" /><path
           fill="#cd91be"
           opacity="1"
           stroke="none"
           d="m 448.09424,408.29193 c -2.22861,0.45456 -4.20407,0.71018 -6.54981,1.03516 -14.64807,-2.78559 -20.07263,-14.19187 -12.24533,-24.95221 3.74118,-5.14313 8.81513,-7.68845 15.13272,-6.58612 6.49778,1.13376 10.60666,5.38 12.41016,11.60629 1.827,6.3074 0.29706,11.853 -4.78958,16.19546 -1.12628,0.96152 -2.46439,1.6749 -3.95816,2.70142 m -13.16522,-14.66934 c 0.0187,3.39062 1.46307,6.32132 4.90417,6.32556 2.44208,0.003 5.89413,-1.29926 7.04718,-3.16257 1.15824,-1.87176 0.72476,-5.4945 -0.33981,-7.712 -0.73474,-1.53049 -4.45212,-3.26584 -5.56598,-2.64179 -2.42719,1.35987 -4.04291,4.16815 -6.04556,7.1908 z"
           id="path181" /><path
           fill="#c7645a"
           opacity="1"
           stroke="none"
           d="m 527.54987,531.71692 c 0.65667,9.09723 -4.72766,15.58954 -12.89545,16.04968 -8.18491,0.46106 -14.74786,-5.33063 -15.09039,-13.31714 -0.25409,-5.92358 3.63073,-11.3717 9.4447,-13.24554 6.1156,-1.97107 12.85608,0.44537 16.58862,6.07233 0.81177,1.22363 1.24854,2.69604 1.95252,4.44067 m -17.27607,0.0259 c -1.35025,2.68121 -1.66742,5.37799 1.8794,6.16589 1.51172,0.33582 3.70654,-0.72839 5.01495,-1.83636 0.68744,-0.5821 0.49207,-3.698 0.0774,-3.83789 -2.04754,-0.69068 -4.30169,-0.76893 -6.97174,-0.49164 z"
           id="path188" /></g></g></g><g
     id="g192"
     style="display:none;opacity:0.87"><path
       fill="#c7645a"
       opacity="1"
       stroke="none"
       d="m 432.89935,503.89862 c 0.0657,-1.33047 0.13135,-2.66095 0.54163,-4.51462 1.37244,-3.50931 2.40027,-6.49545 3.42813,-9.4816 -2.18393,-0.71865 -4.37302,-1.42221 -6.54767,-2.16796 -0.46133,-0.15824 -0.86984,-0.47037 -0.9762,-0.95087 1.9545,-0.40772 3.58192,-0.58218 5.21064,-0.74341 4.27695,-0.42346 6.3565,0.81058 4.78933,5.61099 -0.94958,2.90876 0.69303,4.71003 3.53516,5.7453 -1.72754,7.09232 -3.40472,13.81482 -5.27426,20.90323 0.63666,9.58124 -0.0293,19.24048 2.55258,27.93537 11.36588,38.27728 49.50656,61.19201 88.74805,53.708 29.57361,-5.64026 49.03894,-23.12518 58.2998,-52.2951 4.60065,-15.13635 3.50086,-29.89588 0.13977,-44.88709 1.74323,-1.76098 3.24793,-3.27508 4.75269,-4.78918 0.32953,1.04626 0.65912,2.0925 0.96844,3.84204 0.61115,1.53507 1.24244,2.36691 1.87378,3.19873 4.66626,18.43445 3.71161,36.50513 -2.87378,54.41211 -4.87201,13.24817 -13.38275,23.77765 -23.95752,32.57538 -15.70587,13.06653 -34.32556,19.21063 -54.5473,18.68677 -20.90018,-0.54139 -40.47745,-6.27619 -56.36877,-20.79645 -14.94751,-13.65796 -24.36664,-30.3714 -27.25235,-50.71271 -1.54602,-10.8977 -0.47122,-21.53491 1.47555,-32.75534 0.70008,-1.19031 1.09119,-1.85693 1.4823,-2.52359 z"
       id="path81" /><path
       fill="#bc5c76"
       opacity="1"
       stroke="none"
       d="m 592.06494,497.5835 c -1.4707,1.90228 -2.9754,3.41638 -4.96417,4.91632 -3.65515,-7.2024 -6.82617,-14.39063 -10.28021,-22.22037 2.4757,-0.11676 4.24572,-0.26596 6.01629,-0.2731 11.12952,-0.0449 22.25965,-0.009 33.38849,-0.11487 2.94837,-0.0281 5.89282,-0.4595 9.1626,-0.69928 0.75427,-0.0246 1.18506,-0.0556 2.06641,-0.0529 3.83325,-0.32187 7.21594,-0.6774 10.98486,-1.05163 18.77075,-4.48871 32.0592,-15.37915 41.08978,-32.13819 4.98273,-2.07586 9.05695,-4.54547 9.56299,-10.33035 0.0507,-0.57986 1.08435,-1.07373 1.66186,-1.60748 -1.27575,11.32202 -7.05603,20.53531 -13.66644,29.38891 -9.54498,12.78409 -22.69336,20.24884 -37.94403,22.71811 -11.67328,1.89002 -23.7821,1.09906 -35.69842,1.46042 -0.80976,0.0245 -1.6233,-0.35336 -2.44593,-0.43402 -9.35797,-0.91739 -11.19281,1.14572 -8.93408,10.43845 z"
       id="path82" /><path
       fill="#bb5b8c"
       opacity="1"
       stroke="none"
       d="m 690.82629,433.63293 c -0.64996,0.91245 -1.68359,1.40632 -1.73431,1.98618 -0.50604,5.78488 -4.58026,8.25449 -9.54291,9.96286 1.27716,-6.71954 2.87152,-13.15103 4.53711,-19.98926 -0.26471,-6.81177 0.26788,-13.40869 -1.09692,-19.58639 -4.38782,-19.8609 -16.00244,-35.0322 -31.95636,-46.89298 2.2572,-0.77615 4.13708,-1.45737 6.25653,-2.12137 0.23956,0.0172 0.71625,0.0768 0.80554,0.38944 1.00745,0.75354 1.9256,1.19443 3.18109,1.64972 0.78693,0.0215 1.23663,0.0286 1.68628,0.0358 0.81879,0.55112 1.63764,1.10224 2.73712,2.16065 0.9643,1.24695 1.64789,1.98663 2.33148,2.72632 0.64856,0.78683 1.29712,1.57367 1.98261,3.0484 1.00537,1.47186 1.97382,2.25583 2.9422,3.03979 3.03503,4.66638 6.07013,9.3328 9.15509,14.67725 0.62927,1.21231 1.20856,1.74658 1.78784,2.28088 2.10071,7.28925 4.20142,14.57853 6.24561,22.71363 0.5122,2.65148 1.08099,4.45715 1.64978,6.26281 0.0159,3.70591 0.0319,7.41178 -0.27222,11.66156 -0.40747,1.46735 -0.49506,2.39078 -0.58264,3.31424 -0.0135,0.76728 -0.027,1.53458 -0.11292,2.68051 z"
       id="path83" /><path
       fill="#bc5c76"
       opacity="1"
       stroke="none"
       d="m 691.85425,415.5817 c -0.62897,-1.41074 -1.19776,-3.21641 -1.71314,-5.44883 0.62671,1.40015 1.20008,3.22702 1.71314,5.44883 z"
       id="path86" /><path
       fill="#bc5c76"
       opacity="1"
       stroke="none"
       d="m 594.94312,504.66861 c -0.63324,-0.48798 -1.26453,-1.31982 -1.88636,-2.51309 0.63574,0.48211 1.26197,1.32568 1.88636,2.51309 z"
       id="path87" /><path
       fill="#a9549f"
       opacity="1"
       stroke="none"
       d="m 673.00671,369.77063 c -1.01934,-0.51254 -1.98779,-1.29651 -2.97094,-2.43848 0.841,0.21909 1.69665,0.79624 2.84118,1.49939 0.25281,0.30655 0.2168,0.48709 0.12976,0.93909 z"
       id="path88" /><path
       fill="#bc5c76"
       opacity="1"
       stroke="none"
       d="m 691.16773,430.72507 c -0.14094,-0.69611 -0.0534,-1.61954 0.29785,-2.62815 0.15258,0.7435 0.0416,1.57215 -0.29785,2.62815 z"
       id="path89" /><path
       fill="#9b4f6d"
       opacity="1"
       stroke="none"
       d="m 432.60809,504.0022 c -0.0999,0.56308 -0.49096,1.2297 -1.16934,2.00104 0.1012,-0.56266 0.48963,-1.23005 1.16934,-2.00104 z"
       id="path90" /><path
       fill="#a9549f"
       opacity="1"
       stroke="none"
       d="m 683.85644,386.69369 c -0.53704,-0.22781 -1.11633,-0.76208 -1.73059,-1.62069 0.53949,0.22186 1.1139,0.76803 1.73059,1.62069 z"
       id="path91" /><path
       fill="#b15aba"
       opacity="1"
       stroke="none"
       d="m 613.57196,297.89661 c 0.37525,0.48989 0.4505,0.86865 0.55328,1.90789 2.85535,4.79184 5.54468,9.02817 8.56641,13.01246 1.6358,2.15676 0.81061,2.81997 -1.50055,3.2423 -8.50268,-7.78466 -16.7204,-15.46658 -25.15179,-23.39209 -0.80793,-0.41244 -1.4021,-0.58123 -2.02137,-0.72247 -0.025,0.0276 0.0449,0.002 0.002,-0.26788 -0.35175,-0.42801 -0.66059,-0.58603 -0.91309,-0.75128 0.0564,-0.007 0.0872,-0.11664 0.0659,-0.46283 -7.02356,-7.4447 -13.72974,-14.8671 -21.08039,-21.58423 -28.3869,-25.94026 -68.78509,-31.09216 -101.10021,-11.13721 -9.00614,5.5614 -16.27652,13.93363 -24.62601,21.16763 -5.0965,5.35926 -9.83344,10.64084 -14.74231,15.75748 -6.94708,7.24109 -14.02103,14.36047 -21.42996,21.48413 -5.92334,-2.5213 -1.41428,-4.91299 -0.1214,-6.95486 2.05053,-3.23841 4.58593,-6.16983 6.91626,-9.23111 0.32257,-0.45679 0.64517,-0.91358 1.38107,-1.70941 1.1091,-0.76911 1.92828,-1.0788 2.48251,-1.64698 11.97648,-12.27728 23.93341,-24.5737 35.84809,-36.91085 0.64337,-0.66623 0.88391,-1.72147 1.31195,-2.59565 0,0 0.47452,-0.0912 1.06006,-0.16122 3.01489,-2.03336 5.44424,-3.99669 7.87359,-5.96002 0,0 0.0161,-0.0239 0.40198,-0.0274 1.3121,-0.32495 2.30002,-0.53038 3.15543,-0.98514 14.26602,-7.5843 29.51849,-11.43238 45.613,-12.12509 0.41907,-0.007 0.83808,-0.0131 1.87476,0.26337 3.37036,0.63626 6.21716,0.65684 8.85913,1.40268 9.44611,2.66661 18.82288,5.57921 28.22583,8.39877 0.41888,0.0791 0.83783,0.1583 1.67938,0.58896 1.31659,0.74815 2.21051,1.14475 3.10443,1.54135 15.8346,9.74689 28.08484,23.61417 41.49353,36.14652 0.94934,0.88727 1.57618,2.11953 2.55628,3.83099 1.51251,1.74625 2.82184,2.85284 4.13116,3.95947 1.74372,1.27021 3.48743,2.54041 5.53113,3.92176 z"
       id="path92" /><path
       fill="#a9549f"
       opacity="1"
       stroke="none"
       d="m 416.65015,300.02502 c -1.99183,3.0008 -4.52723,5.93222 -6.57776,9.17063 -1.29288,2.04187 -5.80194,4.43356 -0.0638,7.27167 -0.36292,1.35925 -0.76215,2.51022 -1.52176,3.32534 -11.53525,12.37873 -23.21408,24.62513 -34.64398,37.09983 -4.91138,5.36023 -9.32895,11.17291 -14.25095,16.98751 -4.68558,7.18247 -9.09107,14.15744 -13.74845,20.91962 -1.13714,-1.77618 -2.0224,-3.33957 -2.90765,-4.90298 2.44876,-5.2081 4.86008,-10.43433 7.36896,-15.61332 0.7612,-1.57125 1.79217,-3.01187 2.72751,-4.86941 1.29895,-1.49655 2.57001,-2.63602 3.8891,-4.11438 0.95257,-1.4606 1.85714,-2.58234 3.22986,-4.06247 0.92822,-0.99048 1.3883,-1.62256 1.84838,-2.25464 10.82251,-11.97418 21.65226,-23.94183 32.46463,-35.9252 5.77216,-6.39731 11.47431,-12.85849 17.30054,-19.2059 1.31839,-1.43631 3.02106,-2.5199 4.88535,-3.8263 z"
       id="path93" /><path
       fill="#a9549f"
       opacity="1"
       stroke="none"
       d="m 457.66867,257.13092 c -0.0844,0.84491 -0.32498,1.90015 -0.96835,2.56638 -11.91468,12.33715 -23.87161,24.63357 -35.84809,36.91085 -0.55423,0.56818 -1.37341,0.87787 -2.39428,1.37818 2.64447,-3.608 5.37426,-7.51538 8.62921,-10.92081 9.2507,-9.67847 18.70752,-19.16012 28.11734,-28.68555 0.5524,-0.55917 1.40671,-0.8201 2.46417,-1.24905 z"
       id="path94" /><path
       fill="#a9549f"
       opacity="1"
       stroke="none"
       d="m 515.94275,237.52147 c -15.92093,1.01398 -31.1734,4.86206 -45.43942,12.44636 -0.85541,0.45476 -1.84333,0.66019 -3.14365,0.97676 3.59961,-2.45916 7.38907,-5.30177 11.58313,-7.29153 10.61706,-5.03696 22.1286,-6.47662 33.68744,-7.44806 1.01129,-0.085 2.091,0.64418 3.3125,1.31647 z"
       id="path95" /><path
       fill="#7c4479"
       opacity="1"
       stroke="none"
       d="m 668.01416,363.61176 c -0.66681,-0.39759 -1.3504,-1.13727 -2.09753,-2.18299 0.65124,0.40964 1.36602,1.12525 2.09753,2.18299 z"
       id="path105" /><path
       fill="#a9549f"
       opacity="1"
       stroke="none"
       d="m 615.68457,299.92932 c 3.09387,2.95566 5.88062,5.87317 8.94543,8.96594 2.45087,3.05292 4.73536,5.85386 6.77478,8.82309 5.46186,7.95218 5.24689,16.89057 -0.42169,22.77497 -6.24151,6.47912 -16.8236,8.26553 -23.99304,2.18509 -10.55926,-8.95536 -20.01953,-19.20661 -29.62903,-29.27558 1.81476,-1.50461 3.31067,-2.63949 5.09137,-3.58618 2.495,2.20807 4.74366,4.18768 6.90821,6.25525 6.98236,6.66943 13.81518,13.50088 20.93823,20.01562 4.87921,4.46262 9.98791,4.15577 14.67432,-0.30548 4.64959,-4.42627 4.93725,-8.78268 0.87243,-14.17801 -1.39923,-1.85717 -2.90985,-3.6304 -4.36957,-5.44198 2.02625,-0.52512 2.85144,-1.18833 1.21564,-3.34509 -3.02173,-3.98429 -5.71106,-8.22062 -8.53894,-12.72428 0.40814,-0.31537 0.81641,-0.25845 1.53186,-0.16336 z"
       id="path106" /><path
       fill="#bc5c76"
       opacity="1"
       stroke="none"
       d="m 451.90955,480.33789 c -2.82215,5.40732 -5.64429,10.81458 -8.72263,16.45532 -3.14868,-0.43203 -4.79129,-2.2333 -3.84171,-5.14206 1.56717,-4.80041 -0.51238,-6.03445 -4.78933,-5.61099 -1.62872,0.16123 -3.25614,0.33569 -5.21064,0.74341 -3.703,0.24127 -7.07949,0.24325 -11.07845,0.0659 -1.16215,-0.0624 -1.70179,0.0545 -2.24143,0.17141 -9.42319,-0.32019 -19.03174,0.41785 -28.2287,-1.19357 -16.25348,-2.84775 -28.65085,-12.1994 -37.49322,-26.85892 2.84835,-3.88891 3.56451,1.65561 6.1553,1.13416 14.46475,14.7912 31.6879,21.0206 52.04507,20.12958 14.43937,-0.63205 28.93515,0.0244 43.40574,0.10571 z"
       id="path110" /><path
       fill="#eba5b3"
       opacity="1"
       stroke="none"
       d="m 627.45435,479.13928 c 2.52594,-3.91681 6.38116,-1.78055 10.27819,-1.29303 -3.06225,0.61563 -6.44494,0.97116 -10.27819,1.29303 z"
       id="path112" /><path
       fill="#a9549f"
       opacity="1"
       stroke="none"
       d="m 651.0329,359.11334 c -10.08991,-2.76077 -16.63068,1.36783 -15.71515,10.14981 0.24225,2.32389 2.35077,4.45319 3.68396,7.42151 1.02594,3.0813 1.87793,5.45618 2.94348,7.73105 0.87634,1.87106 2.00617,3.62341 3.02362,5.42838 -4.57294,-5.14197 -10.29401,-9.67582 -13.42297,-15.58271 -3.75782,-7.09402 -2.4007,-14.50042 4.2669,-19.43322 4.41193,-3.26407 17.33655,-4.30436 21.13184,1.81295 -1.7746,1.01486 -3.65448,1.69608 -5.91168,2.47223 z"
       id="path114" /><path
       fill="#a9549f"
       opacity="1"
       stroke="none"
       d="m 658.09497,357.38141 c 0.79004,0.15375 1.66943,0.62012 2.69629,1.3609 -0.77069,-0.16647 -1.68884,-0.60736 -2.69629,-1.3609 z"
       id="path115" /><path
       fill="#bb5b8c"
       opacity="1"
       stroke="none"
       d="m 355.64307,457.0784 c 0.12973,0.71423 0.25943,1.4285 0.46173,2.49853 -2.23685,1.04712 -2.95301,-4.4974 -6.01923,-0.8594 -2.89303,-4.41446 -6.29748,-8.89884 -8.39956,-13.92755 -7.1868,-17.19269 -7.71061,-34.69101 -1.01325,-52.22995 0.33579,-0.8794 1.06653,-1.60797 1.9382,-2.53507 1.21011,1.43509 2.09537,2.99848 3.16791,5.16101 -0.30155,2.3537 -0.91385,4.08432 -1.26022,5.86664 -3.92261,20.18369 -1.94764,39.21039 11.12442,56.02579 z"
       id="path116" /><path
       fill="#c7645a"
       opacity="1"
       stroke="none"
       d="m 416.18997,487.18866 c 0.37503,-0.28464 0.91467,-0.40155 1.61667,-0.34473 -0.37576,0.28659 -0.91391,0.39954 -1.61667,0.34473 z"
       id="path117" /><path
       fill="#b15aba"
       opacity="1"
       stroke="none"
       d="m 575.69116,301.96112 c 2.31061,2.45755 4.32764,4.74481 6.41052,7.3497 -1.42999,1.45252 -2.9259,2.5874 -4.80444,3.7569 -0.38269,0.0346 -0.3504,0.0128 -0.39148,-0.3392 -5.33026,-5.47617 -10.61938,-10.60032 -15.90851,-15.72446 0,0 0.003,-0.004 -0.0531,-0.34171 -1.7099,-1.76214 -3.36389,-3.18661 -5.01794,-4.61108 -3.4151,-2.64218 -6.83014,-5.28433 -10.66504,-8.35016 -1.73456,-1.15396 -3.04938,-1.88428 -4.36414,-2.61456 -0.41491,-0.042 -0.82983,-0.084 -1.64965,-0.48935 -1.74567,-1.05744 -3.08643,-1.7515 -4.42719,-2.44559 -1.00629,-0.0886 -2.01251,-0.17725 -3.49866,-0.61468 -2.08838,-0.75229 -3.6969,-1.15577 -5.30536,-1.55927 -0.74206,-0.0408 -1.48419,-0.0816 -2.66577,-0.40118 -1.07342,-0.37262 -1.70727,-0.46646 -2.34118,-0.56031 -3.37177,-0.0174 -6.74353,-0.0349 -10.87159,-0.29242 -12.87207,-0.768 -22.58639,5.141 -32.07263,11.5629 -0.66382,0.44937 -0.73041,1.78095 -1.07471,2.70227 0,0 0.01,0.0111 -0.35674,0.0151 -1.75202,1.36758 -3.13755,2.73117 -4.52308,4.09475 -3e-5,0 -0.10577,-0.0635 -0.42169,-0.038 -3.50378,2.93576 -7.08011,5.53107 -9.76846,8.84634 -2.60901,3.2175 -5.50238,4.32807 -9.35126,3.79279 4.16657,-5.24228 8.3331,-10.48456 12.60559,-16.03879 0.10596,-0.31192 0.0931,-0.43353 0.35837,-0.51218 1.34824,-1.09539 2.43124,-2.11215 3.51425,-3.1289 15.05829,-14.30335 32.86566,-20.82495 53.59775,-18.4848 15.03247,1.6968 27.05542,9.53921 37.80029,19.613 5.08789,4.77017 9.97449,9.75507 15.24585,14.81293 z"
       id="path135" /><path
       fill="#a9549f"
       opacity="1"
       stroke="none"
       d="m 452.27801,305.83362 c 4.13993,0.40152 7.0333,-0.70905 9.64231,-3.92655 2.68835,-3.31527 6.26468,-5.91058 9.8154,-8.80569 -7.15213,8.53845 -14.67682,17.05319 -22.17932,25.58752 -7.18204,8.16983 -14.34095,16.36005 -21.57904,24.87659 -0.22687,0.61673 -0.42859,0.86212 -0.87092,1.20786 -0.63171,0.13824 -1.06664,0.14007 -2.065,-0.0268 -1.39642,0.95386 -2.22937,2.07642 -3.06231,3.19898 -1.46894,1.57617 -2.93784,3.15231 -5.0907,4.89038 -2.65042,1.26614 -4.75504,2.18536 -6.54691,3.52334 -2.04284,1.52545 -3.24911,5.12091 -6.68612,2.13733 0.67843,-1.1123 1.19155,-2.37799 2.05996,-3.31409 14.75769,-15.90756 29.55673,-31.77676 44.36188,-47.64019 0.5582,-0.59812 1.26965,-1.05317 2.20077,-1.70865 z"
       id="path136" /><path
       fill="#bb5b8c"
       opacity="1"
       stroke="none"
       d="m 645.11682,390.17609 c -1.16546,-2.13697 -2.29529,-3.88932 -3.17163,-5.76038 -1.06555,-2.27487 -1.91754,-4.64975 -2.82336,-7.41852 13.52008,7.79074 21.91156,19.52152 23.81237,35.32431 0.62268,5.17713 -0.006,10.50476 -0.0851,16.19785 -4.35376,13.60287 -11.90594,23.93741 -25.67981,28.23807 -4.38006,1.36764 -9.12622,2.10369 -13.7171,2.16195 -20.49439,0.26026 -40.99317,0.17081 -62.35767,0.18845 -1.95044,0.0247 -3.03357,0.0686 -4.1167,0.11249 -4.35339,-0.0522 -8.70678,-0.10437 -13.44537,-0.56809 0.8363,-3.93286 3.80249,-3.64059 6.64642,-3.6405 23.42493,7.6e-4 46.8501,0.041 70.2743,-0.0903 1.86352,-0.0105 3.72039,-1.21808 5.90875,-1.87879 0.76678,-0.007 1.2052,-0.005 1.94299,0.22513 4.10388,0.88803 7.80847,1.27548 10.08209,-3.25094 15.66108,-7.57544 22.03077,-25.28412 17.53046,-40.98694 -0.72601,-2.53299 -2.55518,-4.74985 -3.87439,-7.11283 -2.25946,-3.80298 -4.51886,-7.60598 -6.92627,-11.74099 z"
       id="path145" /><path
       fill="#c7645a"
       opacity="1"
       stroke="none"
       d="m 561.26636,496.90607 c 2.52539,6.16537 6.2019,12.13104 7.31415,18.54162 1.79779,10.36182 0.81982,20.88532 -3.49189,31.17475 -7.6438,16.04034 -19.62872,26.43524 -36.47369,31.34265 -24.05618,7.00818 -52.77817,-5.62061 -63.36102,-28.64288 1.4281,-0.75348 2.57989,-1.09626 3.97927,-1.20258 1.71662,2.03412 3.25718,3.77838 4.6435,5.63775 11.92914,15.99946 32.4205,23.57337 51.5964,18.72223 2.99414,-0.7575 5.64899,-2.85608 8.74622,-4.40387 0.4751,-0.11828 0.66479,-0.16723 1.20685,-0.24218 3.39795,-2.26801 6.44348,-4.51001 9.53235,-6.79029 0.0435,-0.0383 0.12457,-0.12097 0.4776,-0.11688 1.49578,-0.58411 2.96569,-0.89624 3.73077,-1.8031 7.93536,-9.40594 13.84174,-19.8432 13.73462,-32.51892 -0.0609,-7.21741 -1.24042,-14.42535 -1.9259,-22.01172 0.90893,-2.77798 -4.54639,-5.44376 0.29077,-7.68658 z"
       id="path148" /><path
       fill="#bc5c76"
       opacity="1"
       stroke="none"
       d="m 561.21301,496.54367 c -4.78381,2.60522 0.67151,5.271 -0.57214,7.96323 -2.09125,-2.30515 -3.85755,-4.89865 -5.63232,-7.49945 -0.009,-0.007 -0.0211,-0.0257 -0.0272,-0.3779 -1.29504,-1.46305 -2.5838,-2.57392 -4.00848,-3.93375 -0.41358,-0.74316 -0.69135,-1.23733 -1.02069,-2.08032 -1.33478,-1.44403 -2.61792,-2.53928 -4.04639,-3.83234 -0.36163,-0.44708 -0.61059,-0.65793 -0.9494,-1.16821 -2.00775,-1.77014 -3.95819,-3.2023 -5.92304,-4.63538 -0.0143,-9.1e-4 -0.0276,-0.0264 -0.19348,-0.32214 -9.04077,-8.7041 -29.00073,-10.75894 -41.05764,-4.80978 -2.09717,1.03482 -3.88138,2.70376 -5.81034,4.09667 -2.1e-4,0.0168 -0.0335,0.0218 -0.39282,0.0373 -7.17636,2.77075 -11.89508,7.80722 -15.5874,14.24206 -0.0498,0.41459 -0.0685,0.58054 -0.41272,0.84223 -3.38428,5.08487 -7.53848,9.72116 -9.28208,15.13397 -4.09112,12.7005 -1.78268,25.36841 2.68876,37.68329 -1.1518,0.34277 -2.30359,0.68555 -3.81592,1.08935 -5.81406,-8.2575 -7.30539,-17.51123 -6.75486,-27.23053 0.0926,-1.63519 0.39164,-3.25866 0.58097,-5.31909 4.17422,-19.8999 14.57068,-34.70602 32.79343,-44.04852 16.57119,-7.43274 32.62027,-7.10513 48.69271,1.67017 6.75757,6.51223 13.18933,12.95306 19.54132,19.47167 0.62854,0.64502 0.76929,1.76536 1.18976,3.02744 z"
       id="path149" /><path
       fill="#bc5c76"
       opacity="1"
       stroke="none"
       d="m 601.11005,452.86139 c 2.30261,-2.8e-4 4.60522,-5.2e-4 7.81695,0.0433 6.30823,0.0785 11.7074,0.11298 17.10657,0.1474 -1.85999,0.65125 -3.71686,1.85886 -5.58038,1.86933 -23.4242,0.13132 -46.84937,0.091 -70.2743,0.0903 -2.84393,-9e-5 -5.81012,-0.29236 -7.10955,3.59186 -12.09571,0.40585 -24.11347,0.44879 -36.72794,0.10083 -3.36713,-2.22299 -6.04074,-2.99305 -8.34247,0.31536 -16.35565,0.12809 -32.71127,0.25614 -49.88089,0.35779 -2.26764,0.13095 -3.72128,0.28833 -5.17493,0.44568 -0.72,-0.0133 -1.44003,-0.0266 -2.83178,-0.17358 -2.50455,-0.0194 -4.33728,0.0947 -6.17005,0.20895 -11.73397,-0.24774 -23.47125,-0.39557 -35.20083,-0.77774 -8.0661,-0.26288 -15.08786,-3.3685 -21.46808,-8.76611 -2.33139,-2.82102 -4.35455,-5.5293 -6.34995,-8.99192 -0.4458,-4.58834 -1.10202,-8.41259 -1.30758,-12.26092 -0.0887,-1.65955 0.75537,-3.36896 1.25699,-4.6579 0.71969,11.50437 12.72372,26.74048 22.17855,26.91696 1.03632,0.42047 1.99723,0.5419 3.332,0.67627 1.12079,0.0586 1.86765,0.10416 2.66437,0.40137 0.68881,0.35706 1.32776,0.46246 1.96668,0.56787 11.3417,0.29907 22.68341,0.59818 34.92776,0.94196 19.38965,0.0593 37.87674,0.10077 56.3635,0.0402 1.56765,-0.005 3.13308,-0.69229 4.69955,-1.06262 25.66025,0.005 51.32053,0.0107 77.89713,0.0525 3.97937,-0.28849 7.04248,-0.61353 10.10559,-0.93854 2.36645,-0.001 4.73285,-0.002 7.85596,0.24707 3.25341,0.37149 5.7503,0.49292 8.24713,0.61432 z"
       id="path150" /><path
       fill="#bb5b8c"
       opacity="1"
       stroke="none"
       d="m 498.44171,459.06433 c 1.85895,-3.35297 4.53256,-2.58291 7.43244,-0.39758 -2.24363,0.38287 -4.61667,0.41254 -7.43244,0.39758 z"
       id="path151" /><path
       fill="#eba5b3"
       opacity="1"
       stroke="none"
       d="m 443.11151,460.1182 c 1.28525,-0.45231 2.73889,-0.60969 4.55176,-0.63511 -0.83768,2.67957 -2.37317,3.21527 -4.55176,0.63511 z"
       id="path152" /><path
       fill="#eba5b3"
       opacity="1"
       stroke="none"
       d="m 434.21829,460.11212 c 1.55576,-0.36773 3.38849,-0.4819 5.53403,-0.4314 -1.54379,0.33811 -3.40042,0.51154 -5.53403,0.4314 z"
       id="path153" /><path
       fill="#eba5b3"
       opacity="1"
       stroke="none"
       d="m 557.06128,459.53589 c 0.99969,-0.35947 2.08282,-0.40338 3.56909,-0.38123 -0.032,0.8779 -0.46704,1.68973 -0.9021,2.50159 -0.8612,-0.60159 -1.72235,-1.20319 -2.66699,-2.12036 z"
       id="path154" /><path
       fill="#bb5b8c"
       opacity="1"
       stroke="none"
       d="m 370.79056,424.00623 c -0.42035,1.68673 -1.26438,3.39614 -1.17572,5.05569 0.20556,3.84833 0.86178,7.67258 1.27548,11.91684 -8.00015,-9.0759 -8.86282,-19.95291 -6.11231,-31.4285 2.76334,-11.5289 9.93735,-20.48984 17.49503,-29.1781 2.83334,-3.25723 5.74466,-6.44665 8.79797,-9.95566 4.12888,-4.03994 8.0802,-7.79116 12.30796,-11.73117 3.71344,2.7948 4.91971,-0.80066 6.96255,-2.32611 1.79187,-1.33798 3.89649,-2.2572 6.26309,-3.366 -0.56182,1.45874 -1.5238,2.92209 -2.50525,4.71833 -0.31939,0.48047 -0.57251,0.6857 -1.22253,1.27929 -11.03903,11.56943 -21.85763,22.60901 -32.13635,34.13022 -5.21228,5.84238 -9.1146,12.71118 -10.18527,20.94669 -0.12409,1.04712 0.0274,1.99826 0.34909,3.21887 0.0755,2.41953 -0.0191,4.56958 -0.11374,6.71961 z"
       id="path156" /><path
       fill="#9b4f6d"
       opacity="1"
       stroke="none"
       d="m 399.04675,452.39862 c -0.0518,-0.4472 -0.0538,-0.64276 -0.0551,-1.13196 0.44058,-0.28598 0.88061,-0.27832 1.65002,-0.272 0.3443,0.43732 0.35919,0.87601 0.37296,1.64325 -0.64008,0.22317 -1.27903,0.11777 -1.96784,-0.23929 z"
       id="path160" /><path
       fill="#bc5c76"
       opacity="1"
       stroke="none"
       d="m 628.30493,453.26779 c -0.28845,-0.66916 -0.2774,-1.11047 -0.25647,-1.88138 0.73987,-0.35357 1.46979,-0.37759 2.56476,-0.41345 2.47839,-0.2887 4.59161,-0.56561 7.05908,-0.88647 -1.5589,4.45678 -5.26349,4.06933 -9.36737,3.1813 z"
       id="path163" /><path
       fill="#9b4f6d"
       opacity="1"
       stroke="none"
       d="m 584.69104,451.75134 c -2.74719,0.57367 -5.8103,0.89871 -9.32672,1.18283 2.70142,-0.50442 5.85614,-0.96795 9.32672,-1.18283 z"
       id="path165" /><path
       fill="#9b4f6d"
       opacity="1"
       stroke="none"
       d="m 600.95471,452.52551 c -2.34149,0.21448 -4.83838,0.0931 -7.64844,-0.27633 2.28888,-0.18515 4.89094,-0.12238 7.64844,0.27633 z"
       id="path166" /><path
       fill="#9b4f6d"
       opacity="1"
       stroke="none"
       d="m 535.42615,567.83356 c 2.70532,-2.20331 5.76306,-4.43268 9.1549,-6.70703 -2.71142,2.19702 -5.75695,4.43902 -9.1549,6.70703 z"
       id="path170" /><path
       fill="#9b4f6d"
       opacity="1"
       stroke="none"
       d="m 491.57904,479.98163 c -4.72104,4.6224 -9.80145,9.2604 -15.21906,13.94592 3.32398,-6.1387 8.0427,-11.17517 15.21906,-13.94592 z"
       id="path172" /><path
       fill="#9b4f6d"
       opacity="1"
       stroke="none"
       d="m 544.95636,485.61493 c -1.90131,-1.09284 -3.85986,-2.52362 -5.86359,-4.2944 1.9054,1.0921 3.85584,2.52426 5.86359,4.2944 z"
       id="path173" /><path
       fill="#9b4f6d"
       opacity="1"
       stroke="none"
       d="m 554.98132,496.62955 c -1.27124,-0.76547 -2.54864,-1.88312 -3.84936,-3.34275 1.26556,0.76883 2.55432,1.8797 3.84936,3.34275 z"
       id="path174" /><path
       fill="#9b4f6d"
       opacity="1"
       stroke="none"
       d="m 549.95215,490.61551 c -1.23889,-0.75345 -2.52936,-1.85571 -3.86048,-3.29627 1.24256,0.75696 2.5257,1.85221 3.86048,3.29627 z"
       id="path175" /><path
       fill="#9b4f6d"
       opacity="1"
       stroke="none"
       d="m 393.05038,451.32098 c 0.77671,-0.13067 1.62882,0.0377 2.71952,0.4347 -0.72229,0.1072 -1.6832,-0.0142 -2.71952,-0.4347 z"
       id="path176" /></g></g></svg>
